<?xml version="1.0" standalone="no"?>
<!DOCTYPE svg PUBLIC "-//W3C//DTD SVG 20010904//EN"
 "http://www.w3.org/TR/2001/REC-SVG-20010904/DTD/svg10.dtd">
<svg version="1.0" xmlns="http://www.w3.org/2000/svg"
 width="1140.000000pt" height="530.000000pt" viewBox="0 0 1140.000000 530.000000"
 preserveAspectRatio="xMidYMid meet">

<g transform="translate(0.000000,530.000000) scale(0.100000,-0.100000)"
fill="#000000" stroke="none">
<path d="M3305 5233 c-125 -7 -283 -27 -278 -36 3 -5 25 -6 50 -2 40 6 44 4
41 -12 -3 -16 -14 -18 -88 -18 -78 0 -85 -2 -88 -20 -2 -11 -12 -25 -24 -30
-32 -15 -32 -31 1 -44 25 -11 35 -10 70 8 22 12 47 21 55 21 9 0 37 12 63 27
26 15 68 30 93 34 90 15 138 28 179 49 22 12 41 24 41 26 0 2 -15 3 -32 2 -18
-1 -55 -3 -83 -5z"/>
<path d="M3935 5218 c-55 -10 -143 -17 -195 -16 -199 3 -231 0 -288 -23 -32
-12 -61 -25 -67 -29 -11 -8 -57 -18 -125 -26 -56 -7 -70 -19 -47 -41 14 -14
33 -17 95 -15 78 2 79 2 115 -35 20 -20 37 -45 37 -56 0 -10 11 -32 25 -49 41
-49 32 -82 -35 -128 -19 -13 -38 -28 -41 -33 -14 -19 -8 -140 8 -163 18 -28
93 -58 121 -50 11 4 42 37 70 75 53 73 87 95 167 106 28 4 61 16 75 25 61 43
103 60 145 60 25 0 64 4 87 10 24 5 55 12 71 15 15 3 27 10 27 16 0 7 -11 9
-30 6 -34 -7 -41 0 -29 31 10 25 35 28 63 7 11 -8 26 -15 33 -15 23 0 14 18
-22 40 -34 21 -50 58 -21 47 32 -12 92 16 138 64 26 28 45 56 42 63 -3 7 5 24
16 39 16 20 34 28 71 33 64 9 72 22 13 22 -25 0 -62 9 -82 19 -51 25 -295 25
-437 1z"/>
<path d="M2771 5181 c-34 -9 -38 -29 -7 -37 28 -7 88 15 83 31 -4 12 -44 16
-76 6z"/>
<path d="M6867 5168 c-29 -16 -19 -26 31 -32 26 -2 63 -8 83 -11 23 -4 39 -3
43 4 5 7 -5 11 -26 11 -19 0 -38 4 -43 9 -20 17 -71 29 -88 19z"/>
<path d="M5168 5109 c-10 -5 -28 -9 -40 -8 -38 3 -58 0 -58 -11 0 -5 9 -10 20
-10 10 0 24 -9 30 -20 15 -28 45 -25 96 12 42 30 55 48 34 48 -5 0 -10 -4 -10
-10 0 -6 -9 -6 -26 0 -30 12 -25 12 -46 -1z"/>
<path d="M5320 5110 c0 -5 5 -10 10 -10 6 0 10 5 10 10 0 6 -4 10 -10 10 -5 0
-10 -4 -10 -10z"/>
<path d="M7080 5110 c0 -5 11 -10 25 -10 14 0 25 5 25 10 0 6 -11 10 -25 10
-14 0 -25 -4 -25 -10z"/>
<path d="M7145 5064 c-23 -19 -37 -23 -60 -19 -16 3 -63 0 -103 -6 -63 -10
-73 -15 -78 -35 -5 -20 -12 -24 -46 -24 -23 0 -51 -8 -66 -19 -54 -38 -102
-60 -117 -55 -10 4 -15 0 -15 -14 0 -12 9 -23 20 -27 54 -17 62 -90 14 -121
-34 -23 -53 -6 -35 32 13 30 7 44 -56 122 -27 33 -41 42 -66 42 -67 0 -65 -62
3 -90 32 -13 34 -17 21 -39 -7 -11 -15 -12 -38 -3 -72 27 -133 36 -166 24 -19
-7 -48 -12 -65 -12 -17 0 -43 -5 -57 -12 -21 -9 -31 -9 -46 0 -29 18 -48 15
-117 -19 l-63 -32 -23 22 c-30 28 -45 27 -43 -6 2 -23 -3 -28 -33 -34 -19 -4
-41 -17 -49 -28 -7 -12 -21 -21 -31 -21 -10 0 -20 -7 -24 -15 -3 -9 -18 -15
-36 -15 -24 0 -43 12 -82 51 -37 37 -48 53 -39 62 8 8 19 8 44 0 80 -29 157
-28 157 1 0 16 -148 65 -190 64 -14 0 -49 9 -79 20 -29 12 -73 21 -96 20 -24
0 -47 2 -53 6 -13 8 -131 -19 -145 -33 -6 -6 -19 -11 -30 -11 -18 0 -137 -112
-137 -129 0 -12 -120 -91 -140 -91 -9 0 -26 -10 -38 -23 -18 -19 -20 -28 -12
-62 14 -62 48 -79 100 -49 15 10 35 14 43 11 14 -5 35 -43 51 -90 15 -45 78
-25 102 33 8 19 27 45 42 57 l27 21 -28 26 c-15 14 -27 33 -27 44 0 20 35 62
51 62 6 0 33 23 61 50 28 28 54 50 59 50 5 0 12 -12 15 -26 5 -19 -1 -37 -25
-70 -39 -55 -39 -74 -1 -102 35 -27 48 -27 111 -5 47 17 49 17 66 -1 13 -14
15 -20 5 -23 -7 -3 -18 -11 -25 -18 -11 -10 -19 -10 -47 1 -26 11 -36 12 -49
2 -9 -7 -18 -14 -20 -15 -2 -2 3 -11 12 -21 15 -16 15 -21 3 -38 -12 -15 -17
-17 -27 -6 -7 6 -21 12 -32 12 -15 0 -18 -6 -15 -35 1 -20 -2 -39 -8 -43 -6
-4 -13 -15 -17 -24 -7 -20 -47 -24 -64 -7 -7 7 -26 4 -64 -10 -35 -14 -57 -17
-63 -11 -6 6 -30 10 -54 10 -54 0 -70 15 -67 63 2 26 -1 37 -10 37 -20 0 -34
-31 -24 -55 14 -37 10 -55 -18 -67 -16 -6 -35 -10 -44 -10 -9 0 -38 -19 -63
-44 -26 -24 -52 -44 -59 -44 -7 0 -26 -13 -42 -30 -16 -17 -39 -30 -52 -30
-13 0 -35 -7 -48 -16 -14 -9 -33 -13 -45 -9 -33 10 -25 -24 9 -36 37 -13 55
-54 45 -103 -12 -66 -41 -76 -159 -56 -60 10 -80 1 -81 -37 -1 -15 -6 -52 -13
-82 -13 -61 -6 -101 17 -101 9 0 25 -9 37 -20 19 -18 30 -20 78 -14 77 9 114
34 142 97 17 38 34 59 64 77 28 17 41 32 41 47 0 12 5 25 10 28 15 9 114 10
128 1 8 -4 16 3 22 18 15 40 55 35 81 -9 12 -19 26 -36 32 -36 7 -1 19 -3 27
-4 8 -1 21 -3 28 -4 6 0 12 -9 12 -19 0 -11 17 -29 38 -43 23 -15 38 -33 40
-49 4 -29 21 -51 23 -30 1 8 0 25 0 36 -1 12 5 24 15 28 14 5 7 13 -33 40 -28
19 -64 48 -80 66 -26 29 -31 31 -50 20 -17 -11 -23 -11 -35 1 -21 20 -12 37
32 59 39 20 70 18 70 -4 0 -12 12 -19 105 -69 56 -30 68 -44 74 -90 6 -39 35
-70 84 -91 9 -3 9 -7 -2 -14 -10 -7 -11 -14 -1 -31 9 -18 14 -20 26 -10 16 13
19 55 4 64 -13 8 -13 55 1 55 5 0 26 11 47 25 32 22 38 23 52 10 29 -26 79
-10 52 17 -34 34 39 173 101 194 20 6 70 -32 61 -47 -2 -4 4 -13 14 -18 14 -7
24 -6 38 4 11 8 14 14 7 15 -7 0 -13 8 -13 18 0 12 15 23 48 35 68 25 71 24
61 -25 -4 -24 -8 -45 -9 -48 0 -6 45 -29 93 -49 33 -13 52 -56 38 -87 -17 -39
-83 -42 -160 -7 -53 24 -104 27 -139 9 -17 -9 -45 -16 -61 -16 -20 0 -34 -7
-41 -20 -7 -13 -21 -20 -40 -20 -29 0 -40 -13 -21 -25 5 -3 12 -18 16 -34 3
-16 17 -39 30 -51 20 -19 31 -21 69 -16 34 5 51 3 70 -9 23 -15 27 -15 56 0
20 11 42 14 61 10 18 -4 36 -2 44 5 9 8 29 10 49 7 19 -3 57 0 85 8 28 7 60
11 71 8 18 -5 20 -1 18 28 -3 28 0 33 15 31 10 -2 24 2 32 8 16 13 64 16 88 6
29 -13 22 47 -9 81 -47 49 -76 104 -69 127 9 32 70 77 112 83 29 4 43 0 61
-17 26 -24 31 -66 6 -56 -22 8 -54 -11 -54 -34 0 -28 49 -63 82 -56 17 3 42
-3 73 -19 25 -14 47 -25 49 -25 2 0 13 9 26 20 31 26 54 25 94 -5 18 -14 40
-25 49 -25 8 0 25 -14 37 -31 12 -17 49 -43 83 -60 33 -16 68 -36 78 -45 22
-20 33 -3 18 30 -10 22 -8 30 22 67 18 23 34 50 34 60 3 34 7 35 175 42 72 3
123 -15 118 -40 -4 -19 -81 -63 -112 -63 -13 0 -29 -7 -36 -15 -11 -13 -9 -20
13 -43 15 -16 27 -36 27 -45 0 -9 4 -17 8 -17 4 0 30 -14 56 -30 46 -30 48
-32 31 -50 -9 -10 -33 -20 -53 -22 -47 -4 -51 -22 -13 -55 17 -15 31 -37 31
-49 0 -28 -71 -126 -105 -144 -44 -23 -49 -44 -19 -79 32 -38 28 -64 -11 -71
-16 -3 -28 -8 -27 -12 1 -5 2 -12 2 -17 0 -5 10 -11 23 -13 17 -2 21 -8 19
-30 -2 -19 3 -30 19 -39 19 -10 25 -8 39 11 29 39 46 20 53 -57 4 -49 16 -91
42 -148 21 -44 53 -113 71 -154 19 -40 34 -81 34 -90 0 -10 9 -26 20 -36 23
-21 37 -13 71 41 16 27 21 53 23 124 l2 89 100 99 c54 55 104 108 110 119 6
10 23 24 37 31 23 11 26 18 23 50 -2 20 -10 51 -19 68 -23 45 3 61 43 27 11
-10 35 -20 53 -23 29 -4 32 -9 35 -42 6 -75 51 -44 67 47 10 53 77 120 106
105 32 -18 41 -46 28 -92 -10 -39 -9 -44 13 -63 13 -11 36 -37 51 -57 31 -42
51 -48 67 -18 15 28 39 25 50 -5 5 -14 16 -28 24 -31 8 -3 20 -19 26 -35 17
-40 68 -69 56 -31 -4 11 6 31 25 55 24 29 37 37 64 37 21 0 38 -6 43 -16 8
-14 15 -12 57 15 32 20 62 31 86 31 21 0 41 5 44 10 3 6 15 10 25 10 24 0 80
71 92 118 27 105 29 127 13 138 -8 6 -15 20 -15 31 0 11 -18 39 -40 62 -22 23
-40 47 -40 54 0 7 -9 18 -20 25 -28 17 -25 56 5 80 39 31 32 45 -17 39 -46 -6
-91 13 -112 45 -8 14 -3 24 29 52 48 43 80 46 89 11 4 -14 12 -25 19 -25 17 0
58 29 81 58 10 13 28 28 40 33 11 5 33 18 47 30 19 15 42 22 80 23 53 1 54 2
77 46 17 34 22 61 22 122 0 74 -2 79 -30 104 -16 15 -32 35 -35 46 -4 10 -26
33 -51 52 -39 30 -48 33 -72 24 -21 -8 -37 -6 -74 11 -27 11 -48 26 -47 33 0
7 10 40 22 73 19 51 28 63 61 79 33 16 44 17 72 7 25 -9 39 -9 55 -1 12 7 37
9 58 6 90 -16 96 -15 101 28 8 63 24 67 128 29 6 -3 12 2 12 10 0 8 7 20 15
27 13 11 20 9 40 -10 25 -24 33 -64 15 -75 -5 -3 -10 -19 -10 -35 0 -16 -4
-32 -10 -35 -26 -16 -5 -52 87 -141 53 -52 102 -93 108 -90 9 3 10 17 5 47 -4
23 -6 49 -3 56 10 26 -28 90 -64 110 -18 10 -41 29 -50 42 -15 23 -14 26 7 43
12 10 30 18 41 18 10 0 21 5 25 11 4 7 23 9 50 5 38 -5 45 -2 61 20 10 13 36
31 58 39 39 13 40 14 15 23 -117 46 -133 58 -90 69 11 3 20 12 20 20 0 16 11
15 100 -7 114 -29 142 -21 74 20 -29 18 -40 21 -59 12 -18 -9 -32 -7 -62 7
-21 10 -65 23 -98 30 -33 7 -71 17 -85 21 -35 12 -116 28 -175 35 -27 3 -65 9
-82 12 -29 4 -33 2 -33 -16 0 -23 -19 -28 -38 -9 -7 7 -53 12 -124 13 -115 2
-174 11 -184 26 -3 5 -59 9 -125 9 -93 0 -127 4 -152 17 -18 9 -52 20 -77 24
-25 5 -70 13 -100 18 -61 12 -90 7 -90 -14 0 -24 -40 -38 -88 -31 -26 3 -59 1
-78 -6 -36 -13 -47 -9 -140 46 -38 22 -49 24 -215 24 -96 0 -186 5 -201 11
-19 7 -43 7 -82 -1 -31 -7 -59 -8 -63 -4 -4 4 8 21 27 38 34 28 34 30 16 44
-13 9 -45 14 -97 14 -49 0 -87 5 -105 15 -40 21 -64 18 -99 -11z m-2050 -988
c18 -13 17 -14 -15 -31 -33 -17 -34 -17 -51 6 -17 22 -17 24 -1 31 27 11 47 9
67 -6z m2437 -677 c16 -12 50 -24 76 -28 54 -8 109 -38 115 -63 3 -9 -3 -24
-13 -33 -16 -15 -25 -14 -108 14 -103 34 -168 65 -174 83 -3 7 -3 21 0 31 6
25 66 22 104 -4z m308 -100 c0 -34 -51 -38 -80 -7 l-21 23 22 17 c20 17 23 17
50 1 16 -10 29 -25 29 -34z"/>
<path d="M2820 5070 c0 -5 5 -10 10 -10 6 0 10 5 10 10 0 6 -4 10 -10 10 -5 0
-10 -4 -10 -10z"/>
<path d="M2644 5046 c-4 -9 -5 -19 -2 -21 2 -2 57 -5 122 -7 85 -2 120 0 123
9 3 8 -21 13 -79 16 -46 3 -100 8 -120 12 -30 6 -39 4 -44 -9z"/>
<path d="M6300 5028 c-14 -6 -49 -9 -77 -9 -62 1 -104 -20 -139 -72 -32 -47
-31 -54 11 -74 38 -18 55 -12 36 11 -9 10 -9 20 -3 33 20 36 87 83 119 83 27
0 97 27 87 32 -5 3 -20 1 -34 -4z"/>
<path d="M8270 5026 c0 -21 20 -30 33 -17 6 6 27 12 47 12 l35 1 -40 9 c-59
12 -75 11 -75 -5z"/>
<path d="M1815 4987 c-11 -7 -37 -23 -58 -36 -50 -31 -35 -47 24 -27 56 20 73
20 90 0 7 -9 23 -20 36 -25 37 -14 29 -39 -12 -39 -19 0 -35 -4 -35 -9 0 -25
134 -43 143 -18 2 8 25 11 73 10 68 -2 124 11 124 28 0 5 -5 9 -11 9 -8 0 -9
13 -5 40 7 45 0 49 -33 18 -22 -19 -24 -20 -33 -4 -7 13 -17 15 -43 10 -19 -3
-35 -1 -39 5 -4 6 -20 11 -37 11 -17 0 -36 8 -46 20 -14 15 -29 20 -68 19 -27
-1 -59 -6 -70 -12z"/>
<path d="M2503 4983 c-24 -5 -49 -30 -40 -40 4 -3 12 -1 19 5 7 6 29 12 48 14
19 2 35 8 35 13 0 11 -29 15 -62 8z"/>
<path d="M2352 4960 c-27 -23 -21 -42 13 -37 48 6 78 57 33 57 -13 -1 -33 -9
-46 -20z"/>
<path d="M2630 4958 c-42 -29 -58 -54 -44 -68 14 -14 160 -19 196 -7 36 12 77
-13 106 -64 12 -21 29 -39 37 -39 9 0 15 -9 15 -21 0 -17 -6 -20 -37 -19 -64
3 -72 1 -88 -24 -15 -23 -15 -27 0 -50 10 -14 22 -26 29 -26 6 0 22 -9 36 -20
41 -32 70 -21 35 14 -24 24 -18 29 29 23 50 -7 59 2 42 46 -15 39 6 50 56 30
31 -12 41 -13 53 -3 21 17 19 37 -4 50 -33 17 -51 40 -51 65 0 20 -7 26 -40
35 -23 6 -47 21 -56 35 -13 20 -19 22 -38 14 -19 -9 -31 -5 -70 19 -43 28 -50
29 -77 18 -17 -7 -39 -20 -50 -30 -28 -23 -44 -10 -24 20 14 22 14 24 -3 24
-11 0 -34 -10 -52 -22z"/>
<path d="M2413 4903 c-33 -6 -48 -29 -32 -49 11 -14 10 -19 -10 -35 -13 -11
-30 -19 -38 -19 -8 0 -28 -8 -43 -17 -26 -15 -30 -15 -54 0 -19 13 -31 15 -51
7 -16 -6 -33 -6 -43 -1 -18 10 -61 15 -104 13 -15 -1 -39 -13 -54 -27 -15 -14
-29 -25 -32 -25 -2 0 -13 11 -23 25 -17 20 -24 23 -45 15 -37 -14 -60 -12 -80
7 -32 32 -69 45 -139 50 -38 2 -93 7 -122 10 -33 3 -78 -2 -120 -12 -52 -13
-89 -16 -158 -11 -49 4 -94 11 -100 16 -5 4 -71 16 -145 25 -154 18 -265 11
-366 -24 -32 -12 -68 -21 -81 -21 -12 0 -33 -4 -48 -10 -23 -9 -24 -12 -14
-31 17 -33 -9 -53 -69 -50 -52 1 -102 -12 -102 -28 0 -13 43 -19 68 -10 30 11
39 -9 14 -34 -13 -12 -41 -23 -74 -27 -29 -4 -70 -15 -91 -23 -31 -13 -37 -21
-37 -46 0 -19 -8 -35 -21 -45 -31 -21 -15 -38 28 -30 49 9 41 -13 -16 -45 -60
-33 -43 -39 22 -7 30 14 62 26 72 26 10 0 46 16 81 35 48 27 74 35 113 35 28
0 66 7 85 17 32 15 39 15 103 -1 37 -9 74 -16 81 -16 8 0 26 -9 42 -20 15 -11
30 -17 33 -14 5 5 41 -27 65 -58 10 -13 11 -22 2 -37 -7 -14 -8 -27 -1 -38 6
-12 4 -24 -6 -40 -9 -13 -13 -33 -10 -46 4 -12 2 -29 -3 -37 -6 -10 1 -25 26
-52 19 -21 34 -43 34 -48 0 -6 7 -10 15 -10 21 0 20 -2 -21 -46 -23 -24 -38
-34 -41 -26 -10 25 -33 11 -53 -33 -12 -26 -36 -63 -55 -84 -19 -21 -41 -54
-49 -73 -8 -19 -22 -40 -30 -48 -9 -7 -16 -22 -16 -34 0 -12 -5 -27 -12 -34
-9 -9 -9 -15 0 -24 7 -7 12 -27 12 -46 0 -56 21 -113 47 -125 13 -5 23 -14 23
-18 0 -4 7 -15 16 -24 13 -13 14 -21 4 -44 -10 -24 -8 -35 9 -70 12 -22 21
-59 21 -82 0 -32 4 -42 20 -46 11 -3 20 -9 20 -14 0 -5 5 -9 10 -9 17 0 11 24
-21 95 -32 72 -34 102 -7 119 25 15 58 -18 58 -59 0 -17 13 -52 30 -78 16 -26
30 -56 30 -66 0 -9 12 -28 26 -42 42 -39 75 -114 73 -164 -4 -67 27 -92 200
-167 57 -24 70 -26 103 -17 34 9 44 7 75 -12 27 -17 38 -19 41 -10 2 7 15 16
28 21 16 6 24 17 24 32 0 18 13 29 62 53 64 32 96 75 78 105 -14 22 -88 -4
-100 -36 -20 -51 -59 -74 -125 -74 -61 0 -95 34 -113 113 -11 49 -11 63 3 102
8 25 15 52 15 59 0 7 9 33 19 57 16 36 32 51 83 80 87 50 101 53 154 33 43
-17 45 -16 67 4 33 31 71 37 117 18 22 -8 45 -13 53 -11 7 3 23 -4 36 -16 17
-16 22 -29 17 -50 -5 -27 9 -85 25 -103 5 -5 14 -4 24 4 18 15 21 97 4 134
-21 46 53 136 156 189 50 25 78 63 77 101 -1 31 5 40 49 73 28 21 65 50 82 64
18 14 50 32 72 40 47 15 75 37 75 56 0 7 27 26 61 43 34 16 66 34 73 39 16 13
108 18 112 6 2 -6 -9 -16 -26 -23 -16 -8 -30 -17 -30 -22 0 -4 18 0 40 11 21
10 45 19 53 19 29 0 26 14 -8 37 -38 25 -43 47 -20 77 21 28 19 36 -10 36 -28
0 -105 -31 -105 -42 0 -5 -7 -8 -15 -8 -8 0 -15 8 -15 19 0 13 20 28 68 51 56
28 80 34 147 36 89 3 154 12 171 25 6 5 20 10 30 12 36 5 76 44 72 69 -2 19
-9 23 -43 24 -56 1 -59 2 -46 18 10 11 10 20 1 37 -11 20 -13 35 -18 122 -2
34 -9 34 -71 -5 -50 -30 -52 -31 -71 -13 -15 13 -19 27 -16 44 10 46 -38 81
-110 83 -45 1 -84 -21 -84 -47 0 -6 -14 -24 -31 -41 -22 -21 -29 -35 -26 -54
8 -38 -21 -77 -80 -107 -43 -23 -56 -36 -73 -75 -30 -69 -75 -89 -100 -43 -11
21 -11 32 0 66 15 44 7 59 -33 59 -11 0 -31 8 -45 19 -15 10 -45 24 -67 31
-42 14 -52 22 -72 58 -25 42 23 91 148 149 25 12 49 28 52 37 4 9 18 15 34 15
15 -1 44 3 63 8 31 8 35 12 32 37 -3 24 -1 27 16 22 19 -6 194 18 212 29 5 3
18 18 29 34 l21 29 -24 15 c-23 15 -26 15 -53 -11 -59 -55 -107 -66 -108 -24
0 12 -4 22 -10 23 -23 2 -36 23 -30 51 7 29 5 30 -42 21z m-985 -770 c-10 -2
-26 -2 -35 0 -10 3 -2 5 17 5 19 0 27 -2 18 -5z m357 -3 c-3 -5 -12 -10 -20
-10 -8 0 -17 5 -20 10 -4 6 5 10 20 10 15 0 24 -4 20 -10z m282 -15 c13 -9 23
-28 25 -48 3 -30 6 -32 40 -33 45 -1 68 -18 68 -50 0 -19 -5 -24 -25 -24 -14
0 -30 -9 -37 -20 -16 -25 -63 -27 -72 -3 -4 9 -2 21 4 27 5 5 10 16 10 23 0
39 -74 -15 -102 -73 -25 -54 -53 -73 -76 -50 -14 14 -13 19 11 55 15 22 27 45
27 51 0 5 16 20 35 32 19 13 35 26 35 30 0 12 -56 19 -81 10 -49 -17 -79 9
-43 39 14 12 117 45 149 48 6 1 20 -6 32 -14z m393 -125 c0 -5 -20 -10 -45
-10 -25 0 -45 5 -45 10 0 6 20 10 45 10 25 0 45 -4 45 -10z m-110 -20 c0 -5
-7 -10 -16 -10 -8 0 -12 5 -9 10 3 6 10 10 16 10 5 0 9 -4 9 -10z m-50 -20 c0
-16 -47 -42 -71 -38 -31 4 -34 22 -7 36 29 14 78 15 78 2z m-142 -62 c-6 -18
-68 -50 -84 -44 -14 6 -19 38 -7 49 12 13 95 8 91 -5z"/>
<path d="M2284 4846 c-22 -17 -11 -35 13 -20 19 12 29 34 16 34 -5 0 -18 -6
-29 -14z"/>
<path d="M4275 4720 c-62 -8 -95 -18 -95 -29 0 -3 18 -13 40 -23 43 -18 79
-14 143 17 40 19 46 29 21 39 -17 7 -23 6 -109 -4z"/>
<path d="M2472 4694 c-36 -25 -26 -33 36 -31 60 3 70 14 31 34 -31 16 -40 16
-67 -3z"/>
<path d="M2707 4704 c-4 -4 -4 -10 -1 -15 6 -10 34 0 34 12 0 10 -24 12 -33 3z"/>
<path d="M4621 4433 c-12 -24 -2 -73 15 -73 8 0 20 -11 26 -26 10 -22 9 -28
-15 -50 -33 -30 -33 -33 -2 -62 21 -20 30 -22 70 -17 27 5 45 13 45 20 0 7 6
16 13 18 8 4 5 11 -9 24 -12 10 -29 32 -38 50 -8 17 -27 41 -42 52 -18 14 -25
27 -21 41 7 28 -28 48 -42 23z"/>
<path d="M5075 4375 c-19 -15 -19 -15 10 -13 17 2 29 7 28 13 -3 16 -18 16
-38 0z"/>
<path d="M4505 4339 c-19 -12 -33 -31 -37 -51 -12 -53 -5 -59 47 -42 38 14 45
20 45 43 0 15 6 33 12 39 10 10 10 15 -2 22 -21 13 -30 12 -65 -11z"/>
<path d="M9090 4192 c0 -5 13 -24 29 -43 25 -28 31 -31 36 -17 4 9 4 22 0 28
-9 15 -65 42 -65 32z"/>
<path d="M853 4182 c-8 -5 -8 -11 0 -23 15 -20 57 -42 65 -34 16 16 -44 70
-65 57z"/>
<path d="M2956 4137 l-40 -41 25 -7 c32 -9 88 -10 117 -3 29 8 25 34 -7 51
-14 6 -28 19 -33 27 -13 23 -18 20 -62 -27z"/>
<path d="M9160 4078 c0 -19 36 -52 44 -40 3 5 -6 20 -19 32 -19 18 -25 20 -25
8z"/>
<path d="M9235 3951 c4 -12 2 -28 -4 -35 -19 -23 3 -58 23 -38 4 4 24 7 44 7
47 0 57 29 15 46 -15 6 -41 18 -57 26 -27 15 -28 15 -21 -6z"/>
<path d="M7017 3834 c-11 -11 5 -34 24 -34 12 0 19 7 19 20 0 19 -28 28 -43
14z"/>
<path d="M9270 3817 c0 -7 7 -25 15 -41 19 -37 19 -71 -1 -90 -38 -39 -83 -66
-107 -66 -15 0 -38 -10 -52 -22 -29 -25 -33 -43 -7 -30 33 17 89 21 109 7 17
-12 22 -11 36 6 10 11 29 19 47 19 31 0 68 39 55 59 -3 6 -10 36 -15 67 -5 31
-17 65 -25 74 -20 22 -55 32 -55 17z"/>
<path d="M5000 3801 c0 -11 5 -23 11 -27 14 -8 29 14 22 33 -8 20 -33 16 -33
-6z"/>
<path d="M5160 3712 c0 -17 29 -34 47 -28 9 4 13 10 7 15 -15 14 -54 23 -54
13z"/>
<path d="M8895 3709 c-7 -11 44 -119 56 -119 16 0 59 23 59 32 0 20 -31 66
-54 82 -29 18 -52 21 -61 5z"/>
<path d="M5007 3673 c-4 -3 -7 -17 -7 -29 0 -13 -7 -39 -17 -58 -16 -34 -16
-35 17 -85 17 -28 35 -51 39 -51 4 0 13 11 19 25 6 14 16 25 22 25 15 0 12 36
-4 49 -8 7 -13 30 -13 59 0 26 -3 53 -7 60 -8 13 -38 16 -49 5z"/>
<path d="M5172 3626 c1 -10 8 -17 13 -17 15 1 12 24 -3 29 -9 3 -13 -2 -10
-12z"/>
<path d="M4510 3595 c-7 -13 -31 -37 -53 -52 -38 -27 -76 -88 -77 -124 0 -9
-18 -33 -40 -53 -22 -20 -40 -38 -40 -41 0 -3 22 -5 49 -5 44 0 50 3 60 28 7
15 25 33 44 41 83 34 119 55 125 70 8 23 34 40 60 41 21 0 22 3 16 38 -9 50
-10 51 -55 58 -22 4 -42 11 -45 15 -10 17 -31 9 -44 -16z"/>
<path d="M5535 3610 c-3 -5 3 -10 15 -10 12 0 18 5 15 10 -3 6 -10 10 -15 10
-5 0 -12 -4 -15 -10z"/>
<path d="M5805 3609 c-10 -15 1 -23 20 -15 9 3 13 10 10 16 -8 13 -22 13 -30
-1z"/>
<path d="M9162 3546 c1 -10 8 -17 13 -17 15 1 12 24 -3 29 -9 3 -13 -2 -10
-12z"/>
<path d="M9080 3533 c1 -14 39 -58 45 -52 10 11 -14 59 -30 59 -8 0 -15 -3
-15 -7z"/>
<path d="M5980 3511 c0 -5 -10 -11 -22 -13 -16 -2 -25 -13 -32 -38 -12 -44
-13 -45 -29 -31 -9 6 -67 13 -143 16 -71 2 -142 5 -159 7 l-30 3 -3 -172 -2
-172 157 -3 c146 -3 160 -2 181 17 32 27 25 57 -38 161 -28 46 -50 88 -50 94
0 16 15 12 35 -10 23 -26 31 -25 39 3 6 22 7 22 21 3 8 -11 15 -30 15 -41 0
-12 32 -63 70 -114 39 -50 70 -97 70 -105 0 -23 28 -82 45 -96 9 -8 30 -34 47
-58 27 -39 34 -43 60 -38 16 3 50 1 75 -4 42 -10 48 -8 91 20 26 17 58 33 72
36 125 27 170 53 170 97 0 32 -18 47 -57 47 -28 0 -45 11 -98 65 -36 36 -65
72 -65 80 0 8 -10 31 -22 50 -23 35 -27 37 -140 66 -20 5 -43 16 -51 24 -29
29 -112 75 -135 75 -15 0 -26 7 -29 20 -5 20 -43 29 -43 11z"/>
<path d="M864 3237 c-4 -12 -1 -25 9 -35 22 -22 27 -13 11 23 -11 26 -13 27
-20 12z"/>
<path d="M8854 3175 c-4 -15 -2 -31 5 -38 14 -14 21 -6 24 28 3 36 -20 44 -29
10z"/>
<path d="M8125 3000 l-29 -30 21 -37 c11 -21 26 -63 34 -93 16 -68 27 -84 45
-69 10 9 21 5 45 -15 38 -32 53 -33 45 -3 -7 28 34 73 58 64 18 -7 41 18 32
35 -3 7 -16 31 -29 53 -25 42 -20 41 -112 32 -15 -2 -21 5 -23 26 -4 31 -29
67 -47 67 -6 0 -24 -13 -40 -30z"/>
<path d="M8496 3001 c-10 -11 -15 -25 -11 -30 10 -17 23 -13 36 10 16 30 -3
45 -25 20z"/>
<path d="M2224 2999 c-10 -17 13 -36 27 -22 12 12 4 33 -11 33 -5 0 -12 -5
-16 -11z"/>
<path d="M8907 2953 c-3 -5 -7 -30 -11 -58 -6 -47 -4 -53 28 -88 26 -29 43
-39 71 -42 24 -2 35 1 32 8 -2 7 -11 12 -19 12 -41 1 -86 63 -58 80 15 9 12
43 -6 70 -17 25 -29 31 -37 18z"/>
<path d="M8417 2903 c4 -10 15 -27 25 -37 10 -11 18 -30 18 -41 0 -12 5 -36
11 -53 13 -38 -7 -74 -51 -92 -23 -10 -30 -19 -30 -41 0 -40 16 -44 41 -9 13
16 28 30 34 30 24 0 55 46 55 81 -1 58 -48 147 -92 170 -14 8 -16 6 -11 -8z"/>
<path d="M1659 2863 c-24 -3 -47 -15 -69 -38 -38 -39 -33 -58 15 -49 30 5 35
3 40 -19 4 -14 15 -33 26 -43 10 -9 19 -27 19 -38 0 -38 138 -129 167 -110 26
16 27 33 1 32 -55 -3 -78 2 -78 19 0 9 -7 24 -15 33 -13 14 -13 29 -3 104 6
53 7 91 2 96 -13 13 -60 18 -105 13z"/>
<path d="M4656 2805 c-11 -8 -35 -18 -54 -21 -24 -5 -42 -18 -63 -47 -31 -43
-36 -66 -17 -85 20 -20 59 -15 65 8 3 11 8 20 12 20 3 1 33 2 66 4 104 5 134
37 70 75 -22 13 -35 28 -35 41 0 23 -17 25 -44 5z"/>
<path d="M9080 2696 c0 -9 5 -16 10 -16 6 0 10 4 10 9 0 6 -4 13 -10 16 -5 3
-10 -1 -10 -9z"/>
<path d="M2216 2681 c-10 -11 -16 -26 -13 -33 2 -7 0 -21 -5 -31 -15 -29 -39
-3 -31 34 4 24 3 28 -10 23 -39 -14 -18 -134 23 -134 9 0 20 -4 26 -9 5 -5 29
-16 54 -24 l45 -15 11 -78 c6 -44 10 -81 9 -82 -2 -2 -22 -6 -44 -9 -39 -5
-41 -7 -42 -42 -1 -20 0 -40 1 -46 7 -24 1 -128 -7 -136 -5 -5 -17 -7 -26 -3
-12 4 -15 14 -10 35 5 28 4 29 -35 29 -32 0 -45 6 -64 28 -27 32 -81 72 -98
72 -6 0 -28 8 -49 18 -47 23 -57 19 -81 -29 -24 -46 -25 -57 -4 -80 12 -13 13
-22 5 -38 -6 -12 -16 -30 -21 -41 -12 -24 -4 -43 38 -87 15 -17 35 -50 42 -74
8 -24 35 -75 60 -114 25 -38 52 -83 60 -99 8 -16 33 -40 55 -54 99 -61 148
-99 158 -122 12 -31 28 -109 27 -132 -6 -91 6 -354 17 -371 5 -7 11 -68 15
-137 8 -172 13 -198 40 -229 13 -14 26 -27 31 -29 4 -2 7 -14 7 -27 0 -12 6
-35 14 -50 10 -20 11 -36 4 -62 -7 -27 -6 -39 5 -51 8 -10 25 -37 37 -62 12
-25 28 -55 34 -67 6 -12 21 -27 34 -32 12 -6 22 -15 22 -20 0 -9 53 -31 76
-31 10 0 14 14 14 49 0 27 7 65 15 84 19 45 20 38 -15 82 -33 42 -37 57 -16
77 19 20 26 80 11 98 -7 8 -16 25 -20 38 -8 26 17 41 40 22 22 -19 38 -1 32
36 -6 36 -5 37 65 48 52 9 80 46 66 87 -5 16 -21 38 -35 49 -15 11 -23 26 -20
34 5 13 13 12 55 -3 31 -12 55 -15 65 -10 21 12 117 155 117 174 0 9 9 34 21
56 15 30 19 51 14 78 -5 28 -1 43 14 63 24 30 118 78 153 78 14 0 37 11 50 25
43 43 82 203 71 293 -4 41 -2 52 19 77 13 17 34 46 46 65 11 20 30 47 42 60
24 28 33 57 28 96 -2 24 -13 34 -58 57 -30 16 -67 40 -81 53 -26 25 -111 44
-184 40 -17 0 -30 4 -31 12 -1 6 -2 17 -3 22 0 6 -16 18 -35 27 -32 15 -35 15
-64 -6 -45 -32 -80 -28 -47 6 9 8 14 20 12 27 -7 21 -43 17 -67 -9 -13 -14
-29 -25 -37 -25 -22 0 -14 25 17 53 33 30 35 35 19 92 -15 55 -65 115 -94 115
-13 0 -26 4 -29 9 -10 15 -87 3 -102 -16 -16 -21 -18 -45 -5 -58 5 -6 12 -25
16 -42 6 -29 4 -33 -15 -33 -12 0 -30 -4 -40 -10 -10 -5 -25 -7 -33 -4 -21 8
-40 59 -33 87 3 15 -2 40 -14 65 l-20 41 21 37 c11 20 18 42 15 49 -7 19 -93
55 -132 55 -50 0 -115 19 -140 42 -26 23 -56 23 -78 -1z m186 -848 c16 -31 32
-49 48 -53 14 -4 46 -17 73 -29 38 -17 51 -30 64 -62 12 -30 22 -41 44 -46 18
-3 36 -18 49 -38 23 -37 25 -63 6 -88 -12 -15 -18 -16 -40 -6 -37 17 -71 -3
-93 -57 -21 -50 -50 -65 -111 -57 -24 3 -42 1 -46 -6 -20 -33 -58 18 -87 117
-7 23 -18 47 -25 53 -9 8 -10 18 -3 36 5 14 6 35 2 47 -3 11 -7 50 -9 86 -1
36 -3 74 -5 84 -3 14 7 26 36 43 58 33 71 30 97 -24z m458 -563 c0 -5 -4 -10
-10 -10 -5 0 -10 5 -10 10 0 6 5 10 10 10 6 0 10 -4 10 -10z"/>
<path d="M8981 2686 c-8 -10 -9 -16 -1 -21 5 -3 13 1 16 10 9 22 -1 29 -15 11z"/>
<path d="M8862 2637 c-24 -25 -28 -37 -13 -37 5 0 19 14 31 30 25 35 13 40
-18 7z"/>
<path d="M8155 2613 c-6 -24 -1 -33 33 -63 29 -25 42 -46 47 -75 9 -55 40
-112 73 -132 15 -10 32 -25 39 -33 8 -11 15 -12 22 -4 8 7 6 21 -8 50 -11 21
-25 53 -31 71 -7 17 -33 48 -60 70 -28 22 -51 49 -55 65 -3 15 -13 32 -21 39
-8 6 -14 18 -14 25 0 25 -18 15 -25 -13z"/>
<path d="M9100 2591 c0 -12 -39 -26 -62 -22 -25 3 -23 -15 2 -22 11 -3 25 -19
31 -37 8 -21 17 -30 28 -27 9 2 15 9 13 16 -1 7 7 15 18 18 15 4 19 11 14 27
-3 11 -8 29 -10 39 -5 17 -34 24 -34 8z"/>
<path d="M1957 2574 c6 -15 23 -19 23 -5 0 5 -7 11 -14 14 -10 4 -13 1 -9 -9z"/>
<path d="M7522 2548 c2 -35 7 -43 23 -43 16 0 20 6 18 28 -2 30 -19 57 -35 57
-5 0 -8 -19 -6 -42z"/>
<path d="M8788 2475 c-10 -13 -18 -30 -18 -37 0 -23 -21 -38 -40 -28 -13 7
-22 2 -39 -20 -12 -17 -27 -30 -33 -30 -13 0 -77 -67 -71 -74 5 -5 109 28 151
47 12 6 22 17 22 24 0 8 7 25 16 38 12 19 25 25 50 25 42 0 52 19 29 54 -21
32 -45 33 -67 1z"/>
<path d="M5734 1928 c-41 -19 -46 -107 -8 -137 22 -17 24 -24 14 -36 -14 -17
-46 -5 -68 27 -7 10 -23 18 -36 18 -12 0 -27 5 -33 11 -6 6 -21 9 -34 7 -17
-2 -25 -11 -29 -32 -4 -23 -12 -32 -37 -38 -32 -8 -33 -11 -33 -58 0 -34 7
-59 23 -83 21 -33 23 -34 82 -31 33 1 62 3 65 3 3 1 28 22 55 49 28 26 72 58
97 71 58 29 73 61 63 136 -5 47 -12 59 -39 80 -36 27 -49 29 -82 13z"/>
<path d="M9345 1780 c-16 -10 -37 -19 -46 -19 -21 -1 -59 -43 -59 -64 0 -28
-29 -31 -61 -8 -20 15 -37 20 -52 16 -26 -8 -107 -92 -107 -111 0 -8 -10 -14
-25 -14 -17 0 -29 -9 -39 -28 -22 -43 -47 -60 -129 -87 -113 -37 -174 -70
-192 -106 -12 -23 -16 -65 -17 -187 -1 -138 -4 -162 -22 -195 -17 -33 -18 -39
-6 -47 21 -14 42 -12 86 6 21 9 68 20 104 25 36 5 87 19 114 30 165 70 298 63
335 -18 12 -26 43 -30 61 -8 13 15 50 21 50 8 0 -5 -4 -15 -10 -23 -5 -9 -5
-19 1 -27 6 -6 12 -36 13 -65 2 -50 4 -54 38 -71 27 -13 42 -15 61 -8 19 8 28
6 37 -5 16 -19 27 -18 57 6 14 11 40 20 58 20 27 0 43 12 99 73 73 78 79 84
140 139 77 69 125 207 96 278 -7 16 -16 30 -20 30 -4 0 -24 35 -44 78 -21 42
-49 89 -63 104 -23 24 -26 35 -24 90 1 48 -3 70 -19 93 -36 55 -39 60 -45 88
-3 15 -11 27 -19 27 -15 0 -36 -63 -36 -110 0 -37 -55 -120 -79 -120 -25 0
-139 82 -145 104 -3 11 2 34 10 52 18 37 14 50 -18 57 -13 2 -30 7 -38 10 -8
3 -28 -3 -45 -13z"/>
<path d="M5143 1585 c-17 -13 -16 -17 15 -79 39 -77 50 -111 62 -186 12 -80
27 -132 40 -140 20 -12 80 -144 80 -176 0 -49 29 -68 87 -58 26 4 73 8 104 8
70 1 118 32 195 126 30 36 63 74 74 85 24 25 27 50 4 41 -19 -7 -44 10 -44 31
0 8 9 22 20 31 18 16 18 21 6 72 -12 53 -14 55 -47 58 -30 2 -42 -5 -107 -68
-71 -68 -94 -81 -107 -60 -10 17 -37 11 -42 -9 -6 -22 -46 -46 -62 -37 -5 4
-8 13 -5 21 3 7 -4 18 -15 25 -28 14 -28 75 0 134 15 32 19 59 17 101 l-3 58
-45 13 c-25 8 -63 11 -85 8 -22 -3 -59 -1 -82 4 -32 7 -47 6 -60 -3z m555
-459 c3 -11 -4 -26 -14 -33 -23 -17 -29 -16 -49 3 -15 15 -15 18 1 36 22 23
57 20 62 -6z"/>
<path d="M6690 1470 c0 -5 5 -10 10 -10 6 0 10 5 10 10 0 6 -4 10 -10 10 -5 0
-10 -4 -10 -10z"/>
<path d="M10480 874 c0 -8 5 -12 10 -9 6 3 10 10 10 16 0 5 -4 9 -10 9 -5 0
-10 -7 -10 -16z"/>
<path d="M10468 791 c-15 -14 -36 -34 -47 -43 -12 -10 -18 -24 -15 -33 4 -8 1
-22 -6 -30 -30 -36 4 -24 64 21 35 27 71 54 79 59 13 8 11 13 -17 31 l-32 20
-26 -25z"/>
<path d="M9407 636 c-7 -45 7 -54 49 -31 29 15 63 52 52 56 -2 0 -24 2 -50 4
-45 2 -46 1 -51 -29z"/>
<path d="M10258 637 c-43 -33 -127 -76 -150 -78 -24 -1 -103 -55 -103 -70 0
-39 104 -9 154 45 14 14 32 26 41 26 10 0 33 12 53 28 20 15 48 35 62 45 26
18 26 37 0 37 -7 0 -33 -15 -57 -33z"/>
<path d="M2660 211 c0 -20 7 -34 19 -41 23 -12 101 -14 101 -2 0 6 -81 56
-112 70 -5 2 -8 -10 -8 -27z"/>
</g>
</svg>
