<?xml version="1.0" encoding="UTF-8"?>
<svg version="1.1" xmlns="http://www.w3.org/2000/svg" width="3420" height="1094">
<path d="M0 0 C84.53686724 -2.26387504 170.28625763 27.35357674 234.81689453 82.06640625 C236.23421875 83.20722656 236.23421875 83.20722656 237.68017578 84.37109375 C246.33395381 91.42964911 254.22408915 99.25715374 262.12939453 107.12890625 C262.96883102 107.96057816 262.96883102 107.96057816 263.82522583 108.80905151 C270.962424 115.89420775 277.57811369 123.16141152 283.81689453 131.06640625 C284.84085569 132.3100844 285.86779336 133.55132354 286.89892578 134.7890625 C298.25229684 148.60385252 307.92539069 163.57019683 316.81689453 179.06640625 C317.26500488 179.83839355 317.71311523 180.61038086 318.17480469 181.40576172 C341.74026195 222.24457952 355.63194979 267.44143819 361.81689453 314.06640625 C361.93403809 314.8975293 362.05118164 315.72865234 362.171875 316.58496094 C374.57429548 407.5851873 345.84651289 502.10342293 291.16455078 574.72265625 C286.597331 580.69928642 281.80346618 586.43688833 276.81689453 592.06640625 C276.02927734 592.96488281 275.24166016 593.86335937 274.43017578 594.7890625 C268.27803513 601.65589453 261.80692289 608.20795888 255.31689453 614.75390625 C254.01776123 616.07261719 254.01776123 616.07261719 252.69238281 617.41796875 C246.71431763 623.40391018 240.43170419 628.79970253 233.81689453 634.06640625 C232.60842303 635.06700967 231.40228753 636.07044909 230.19970703 637.078125 C182.86158333 676.21250243 126.7069779 696.74261723 67.81689453 710.94140625 C66.61778442 711.23052887 65.41867432 711.51965149 64.18322754 711.8175354 C60.70806029 712.65262523 57.23158988 713.48199278 53.75439453 714.30859375 C52.71563171 714.55722672 51.6768689 714.80585968 50.60662842 715.06202698 C27.68043768 720.47259406 2.61389187 722.84100572 -18.85888672 711.2109375 C-32.41226729 702.46733476 -42.66757509 689.7324163 -46.73256874 673.93046379 C-47.33331073 670.11155291 -47.33461872 666.33507467 -47.33700562 662.47976685 C-47.343579 661.18453891 -47.343579 661.18453891 -47.35028517 659.86314476 C-47.36363788 656.97012159 -47.36984419 654.07712887 -47.37597656 651.18408203 C-47.38388053 649.10918542 -47.39214967 647.03429017 -47.40075684 644.95939636 C-47.4269506 638.14351713 -47.44228541 631.32763185 -47.45654297 624.51171875 C-47.46190441 622.16158927 -47.46728192 619.81145982 -47.47267532 617.46133041 C-47.49430333 607.68011825 -47.51303715 597.89890771 -47.52429771 588.11767769 C-47.54051734 574.12275825 -47.57364808 560.12811729 -47.63069856 546.13330281 C-47.6694822 536.28166905 -47.68894058 526.43010951 -47.69421828 516.57840145 C-47.69786117 510.70089501 -47.70976903 504.82368578 -47.74232101 498.94626236 C-47.77254853 493.40905902 -47.77866121 487.87233043 -47.76693726 482.33506203 C-47.76671772 480.31274324 -47.77492196 478.29040148 -47.79259109 476.26815987 C-47.95259644 456.88606786 -44.22876224 442.67170121 -31.16357422 427.76171875 C-19.63152388 416.4281167 -4.39512007 411.68629837 11.37597656 411.76513672 C27.07489923 412.15493638 40.11601916 418.33250852 51.18798828 429.2734375 C63.76230314 442.63247929 67.10481615 457.95254127 67.13574219 475.77783203 C67.14506036 477.12904955 67.15523178 478.48026141 67.16618347 479.83146667 C67.19328494 483.46917633 67.20857333 487.1068477 67.2216115 490.74463129 C67.23732978 494.55765283 67.26409187 498.37059718 67.28964233 502.18356323 C67.33627712 509.3903503 67.37309486 516.59715215 67.40631521 523.80401218 C67.44464526 532.01453482 67.49402661 540.22497964 67.54429936 548.43543649 C67.64739142 565.31236996 67.73672511 582.18934863 67.81689453 599.06640625 C72.6172124 597.71159974 77.41628863 596.35250389 82.21432495 594.98963928 C83.84237811 594.52782211 85.47074879 594.06712262 87.09945679 593.60762024 C147.38253771 576.59452882 196.14168498 534.87401629 226.81689453 480.50390625 C258.96409781 421.91100798 267.49521256 353.40323445 249.27392578 288.953125 C236.82390042 246.59888073 215.01658051 210.98058275 184.81689453 179.06640625 C184.17880859 178.38578125 183.54072266 177.70515625 182.88330078 177.00390625 C177.93422843 171.87680971 172.38055045 167.50315607 166.81689453 163.06640625 C165.7422119 162.1893702 164.66800518 161.31175071 163.59423828 160.43359375 C141.12979932 142.21272853 115.24696631 128.21701295 87.81689453 119.06640625 C87.01300293 118.79393066 86.20911133 118.52145508 85.38085938 118.24072266 C22.994984 97.39523101 -46.60961169 102.67574643 -105.43310547 132.00390625 C-108.02980183 133.33349507 -110.6078331 134.69588624 -113.18310547 136.06640625 C-113.82666992 136.40220703 -114.47023437 136.73800781 -115.13330078 137.08398438 C-129.71084766 144.72432968 -142.74256776 154.30334085 -155.37060547 164.81640625 C-170.97935175 177.74414346 -189.28836451 188.66279355 -210.13964844 187.34033203 C-219.15570771 186.13172767 -227.45927461 179.70138721 -233.01904297 172.78125 C-242.1486933 160.3194699 -245.90059033 147.18982879 -243.71826172 131.78515625 C-238.10255571 102.27777795 -221.27698012 80.05246707 -196.97607422 63.30078125 C-138.31745085 23.44809566 -70.76495429 2.15254614 0 0 Z " fill="#1560A3" transform="translate(309.18310546875,191.93359375)"/>
<path d="M0 0 C31.42932285 0.00435895 62.85864236 0.00395075 94.28796517 -0.00045542 C198.53260421 -0.01504063 302.77731198 -0.02821074 630.93993314 0.60993 C631.78875484 0.61268296 632.63757655 0.61543591 633.51212012 0.61827229 C679.01217764 0.76602521 724.51216887 0.93023062 770.01212615 1.10602827 C774.72476544 1.12423194 779.43740509 1.1423366 784.15004499 1.16038104 C801.73886563 1.22774062 819.32768259 1.29598709 836.91649564 1.36530109 C838.01483998 1.36961934 839.11318433 1.37393758 840.24481183 1.37838668 C881.57252895 1.54101802 922.90009922 1.73309641 964.22753079 1.95709797 C966.65144854 1.97014824 969.07536631 1.98319363 971.4992841 1.99623486 C977.50184383 2.02858655 983.50440258 2.06111541 989.50696083 2.09373818 C994.07073782 2.11853836 998.63451517 2.14327104 1003.19829278 2.16795659 C1048.60773173 2.41358233 1094.01712656 2.66622072 1139.42645963 2.93074127 C1140.84372119 2.93899661 1140.84372119 2.93899661 1142.2896143 2.94741872 C1149.9804683 2.99222197 1149.9804683 2.99222197 1153.7255726 3.01406154 C1166.96820658 3.09125398 1180.21084963 3.1666502 1193.45350154 3.24069917 C1210.52285034 3.33614654 1227.59217634 3.43471655 1244.66147555 3.53867938 C1253.00302372 3.58940609 1261.34457416 3.63865704 1269.68615468 3.68378445 C1276.68002403 3.72162404 1283.67386583 3.76260223 1290.66769187 3.80776877 C1294.20491839 3.83051918 1297.74213677 3.8518049 1301.27939518 3.86897071 C1305.10362182 3.88757062 1308.92778002 3.91345202 1312.75196011 3.94000813 C1313.84993993 3.94419492 1314.94791974 3.94838172 1316.07917167 3.95269539 C1322.79499229 4.00696116 1329.40678117 4.41152277 1336.08446439 5.12946125 C1336.08446439 8.09946125 1336.08446439 11.06946125 1336.08446439 14.12946125 C1277.04880212 14.27027364 1218.01690289 14.08026766 1158.98236485 13.74265864 C1156.24760229 13.72702288 1153.51283942 13.71144363 1150.77807648 13.69587465 C1122.171843 13.53286555 1093.56565113 13.36294529 1064.95946439 13.19196125 C1063.08917173 13.18078322 1061.21887906 13.16960615 1059.3485864 13.15843006 C1058.54405451 13.15362204 1057.73952263 13.14881402 1056.91061099 13.1438603 C956.04565896 12.54167536 855.18050538 12.01249925 752.21208573 11.61252341 C750.79615552 11.60702904 749.38022534 11.60152955 747.96429517 11.59602506 C668.6641841 11.28776918 589.36448165 11.05654837 478.11180814 11.00006672 C477.44759412 10.99987238 476.7833801 10.99967804 476.09903839 10.99947781 C441.71861876 10.98955982 407.33820053 10.98983452 372.95778004 10.99391016 C351.72403745 10.99642367 330.49029571 10.99676998 309.25655301 10.99564549 C307.74282254 10.995568 306.22909207 10.99549084 304.7153616 10.99541402 C298.62072642 10.99510311 292.52609125 10.9947844 286.43145607 10.99445425 C269.43157079 10.99354066 252.4316855 10.99296757 235.4318002 10.99266811 C234.65993248 10.99265447 233.88806477 10.99264082 233.09280712 10.99262676 C208.77775495 10.9922221 184.4627031 10.99331995 160.14765103 10.99551769 C158.97807591 10.99562307 158.97807591 10.99562307 157.78487301 10.99573057 C145.1516267 10.99687323 132.5183804 10.99809375 119.8851341 10.99932074 C69.8933084 11.0041708 19.90148539 11.00394556 -30.0903403 10.99909016 C-42.71980095 10.99786729 -55.3492616 10.99665555 -67.97872226 10.99551769 C-68.75813604 10.99544725 -69.53754982 10.9953768 -70.34058219 10.99530421 C-94.64801198 10.99312293 -118.95544155 10.99223839 -143.26287143 10.99266811 C-144.0340549 10.9926817 -144.80523838 10.99269528 -145.59979105 10.99270928 C-162.58596762 10.9930228 -179.57214417 10.99365846 -196.55832072 10.99457862 C-202.64503206 10.99490725 -208.73174339 10.99522041 -214.81845473 10.99552933 C-216.33040508 10.99560672 -217.84235543 10.99568545 -219.35430579 10.99576552 C-240.53839784 10.99688471 -261.72248889 10.9961704 -282.90658082 10.99365911 C-317.25201484 10.98961539 -351.59744631 10.99001779 -385.94287936 11.00006672 C-386.93722809 11.00035659 -386.93722809 11.00035659 -387.95166468 11.00065232 C-470.6929091 11.02516768 -553.43284136 11.20644491 -657.9118735 11.60431477 C-658.60984284 11.60702362 -659.30781218 11.60973247 -660.02693211 11.61252341 C-760.73401144 12.00337254 -861.44027069 12.5264198 -967.72164981 13.15843006 C-968.64746514 13.16394225 -969.57328046 13.16945444 -970.52715079 13.17513367 C-972.42211629 13.18641781 -974.31708178 13.19770233 -976.21204726 13.2089872 C-1004.88469612 13.37972573 -1033.55735334 13.54879705 -1062.23004888 13.7115325 C-1064.95738485 13.7270224 -1067.6847205 13.74256715 -1070.41205613 13.75811621 C-1128.24700305 14.08722619 -1186.07951189 14.26957944 -1243.91553561 14.12946125 C-1243.91553561 11.15946125 -1243.91553561 8.18946125 -1243.91553561 5.12946125 C-1236.46870043 4.27095145 -1229.15792315 3.96840283 -1221.66532199 3.94000813 C-1220.4647408 3.9316934 -1219.26415961 3.92337868 -1218.02719717 3.91481199 C-1214.71215629 3.89280239 -1211.39714199 3.87498171 -1208.08206998 3.85897423 C-1204.48013155 3.8405446 -1200.87822861 3.8166512 -1197.27631824 3.79346367 C-1190.17454597 3.74859954 -1183.07275379 3.70875203 -1175.9709432 3.67049602 C-1167.56182896 3.62496983 -1159.15274934 3.57409807 -1150.74366707 3.52305764 C-1134.46962267 3.4244727 -1118.19555053 3.33135202 -1101.92146021 3.24069917 C-1087.67618883 3.16134721 -1073.43092901 3.08020552 -1059.18567722 2.99741169 C-1055.35835587 2.9751838 -1051.53103449 2.95296149 -1047.7037131 2.93074127 C-1046.28140582 2.92248312 -1046.28140582 2.92248312 -1044.83036505 2.91405814 C-1000.23640692 2.65526835 -955.64238583 2.40850785 -911.04832588 2.16795659 C-905.76989558 2.13948283 -900.49146574 2.11092427 -895.21303622 2.08230396 C-888.65457771 2.04675046 -882.09611822 2.01138049 -875.5376579 1.97615977 C-873.28603232 1.96405915 -871.03440692 1.95192434 -868.78278176 1.93974324 C-827.40619713 1.71623858 -786.02946087 1.52814713 -744.65259616 1.36530109 C-743.51684721 1.36082077 -742.38109826 1.35634045 -741.21093267 1.35172436 C-724.12637181 1.28435157 -707.04180621 1.21824166 -689.95723829 1.15268559 C-685.24911681 1.13460964 -680.54099578 1.11641838 -675.83287494 1.09817525 C-630.31229729 0.9218608 -584.79168281 0.75807138 -539.27100436 0.60993 C-537.99351001 0.6057713 -537.99351001 0.6057713 -536.69020769 0.60152858 C-440.70018336 0.28948778 -344.71035458 0.07855884 0 0 Z " fill="#DB332C" transform="translate(2018.9155356138945,592.8705387488008)"/>
<path d="M0 0 C88.48604911 0 88.48604911 0 106.625 17.1875 C132.28547114 43.91901689 133.43607317 85.28786185 133.3125 120.125 C133.31067719 121.19583832 133.30885437 122.26667664 133.30697632 123.3699646 C133.22895937 150.64413001 132.24781929 179.0276499 120 204 C119.54882812 204.92941406 119.09765625 205.85882813 118.6328125 206.81640625 C111.19967727 221.26079606 100.05052971 232.79503977 84.30859375 237.8671875 C56.98434481 245.67411577 28.27783621 241 0 241 C0 161.47 0 81.94 0 0 Z M41 36 C41 91.77 41 147.54 41 205 C60.62623797 206.21719881 60.62623797 206.21719881 77.4765625 197.83984375 C99.14231322 171.67428327 92.80334005 117.72344446 90.4609375 86.41796875 C88.88228989 69.83530511 86.43642657 50.97772591 73.35546875 39.375 C63.70207908 33.73985379 51.41171222 36 41 36 Z " fill="#14446D" transform="translate(808,238)"/>
<path d="M0 0 C12.54 0 25.08 0 38 0 C38.33 25.41 38.66 50.82 39 77 C42.63 74.03 46.26 71.06 50 68 C61.28393643 61.25416844 73.13373153 58.30807139 86.21484375 61.125 C94.38025121 63.6902893 99.76692949 67.62333828 103.8203125 75.21484375 C105.84985102 80.00643635 107.06207066 84.89199634 108 90 C108.17385727 90.92696182 108.34771454 91.85392365 108.52684021 92.80897522 C109.36804756 98.83499962 109.1304537 104.94278066 109.11352539 111.01342773 C109.11324301 112.4331614 109.11340225 113.85289521 109.1139679 115.27262878 C109.11425389 119.11094774 109.10838923 122.94923521 109.10139394 126.78754687 C109.09512736 130.80473847 109.09455399 134.82193085 109.09336853 138.83912659 C109.09026494 146.43916698 109.08206469 154.03919293 109.07201904 161.63922697 C109.06082767 170.29460353 109.05533984 178.94998078 109.05032361 187.60536277 C109.03988124 205.40358503 109.02154787 223.20178749 109 241 C96.46 241 83.92 241 71 241 C70.98541748 236.82593506 70.97083496 232.65187012 70.95581055 228.35131836 C70.90548876 214.56501451 70.83904799 200.77882796 70.76428509 186.99263668 C70.71934741 178.63353169 70.67992808 170.27446911 70.65356445 161.9152832 C70.63056793 154.62817518 70.59715145 147.3412016 70.55129844 140.05420023 C70.52738845 136.19689452 70.50864514 132.33972177 70.50238609 128.48234367 C70.4963251 124.84859186 70.47628906 121.21518016 70.44572449 117.58155441 C70.4327945 115.61843069 70.43451142 113.65522744 70.4367218 111.69206238 C70.3610193 101.42622212 70.3610193 101.42622212 65 93 C56.61456653 91.78594734 50.898253 93.59009076 44.13370419 98.29921818 C41.06559227 100.8676322 39.26077644 102.86145055 38.35298347 106.82487297 C38.09752017 110.35718071 38.06892615 113.82944811 38.11352539 117.37084961 C38.10562809 118.72163942 38.09466117 120.07241423 38.08087158 121.42315674 C38.05223724 125.07388181 38.06633296 128.72331919 38.08831334 132.37404323 C38.10398301 136.19514479 38.08006379 140.01599767 38.06040955 143.83705139 C38.02921101 151.06536576 38.03342817 158.29320478 38.05048412 165.52154881 C38.06817599 173.75381593 38.04621203 181.9858294 38.02097714 190.21805942 C37.96997329 207.14554853 37.97380813 224.07242757 38 241 C25.46 241 12.92 241 0 241 C0 161.47 0 81.94 0 0 Z " fill="#14446D" transform="translate(1648,238)"/>
<path d="M0 0 C12.25615501 10.19902652 15.45252156 21.82496993 16.90206909 37.18539429 C17.75847877 47.73141119 17.65349183 58.3210909 17.69140625 68.89453125 C17.70762983 71.36733119 17.72481465 73.84012499 17.74290466 76.31291199 C17.78819185 82.76977676 17.82319708 89.22665049 17.85510254 95.68359375 C17.90734266 106.03162455 17.97267421 116.37956408 18.04331779 126.72748375 C18.06589502 130.31333484 18.08232461 133.8991748 18.09803772 137.48506165 C18.11145986 139.70724611 18.12507597 141.92942942 18.13891602 144.15161133 C18.14152939 145.12806107 18.14414276 146.1045108 18.14683533 147.11054993 C18.20274559 154.74993218 18.7646969 162.14325662 19.3125 169.8125 C6.7725 169.8125 -5.7675 169.8125 -18.6875 169.8125 C-19.0175 165.1925 -19.3475 160.5725 -19.6875 155.8125 C-21.42 157.17375 -23.1525 158.535 -24.9375 159.9375 C-39.54015728 171.0647732 -53.64974465 174.23402604 -71.6875 172.8125 C-80.5064191 171.30039534 -86.88000989 166.49006534 -92.6875 159.8125 C-100.54180435 148.21541681 -101.47015687 133.11407484 -99 119.61328125 C-94.70930291 99.51175673 -82.28607501 85.30483863 -65.69921875 73.7265625 C-34.72616107 53.8125 -34.72616107 53.8125 -20.6875 53.8125 C-20.91000421 50.47674581 -21.17054662 47.14496805 -21.4375 43.8125 C-21.499375 42.87792969 -21.56125 41.94335938 -21.625 40.98046875 C-22.13186717 34.94030161 -23.18374288 29.86284667 -26.6875 24.8125 C-31.68087384 20.91523261 -37.61219187 21.11637094 -43.6875 21.8125 C-47.10724919 23.10244793 -47.10724919 23.10244793 -49.6875 24.8125 C-50.6775 25.1425 -51.6675 25.4725 -52.6875 25.8125 C-56.22145671 31.33430736 -57.9220454 38.63340889 -59.6875 44.8125 C-71.8975 45.1425 -84.1075 45.4725 -96.6875 45.8125 C-94.20861022 27.22082662 -90.27091084 13.64970809 -75.8125 1.375 C-55.13419711 -13.95875691 -21.18939288 -15.44613993 0 0 Z M-50.99609375 102.09765625 C-58.29946948 109.91025818 -62.10765825 117.45224484 -61.96484375 128.2109375 C-61.37049144 133.78612955 -59.07007726 137.49575975 -55.0625 141.3125 C-49.62534699 143.72901245 -44.90430538 143.7750087 -39.20703125 142.0703125 C-32.03088613 138.94429698 -24.32433276 133.95741762 -20.6875 126.8125 C-18.89551517 119.2657402 -19.6509214 111.305328 -20 103.625 C-20.05525591 101.50728899 -20.10543211 99.38943902 -20.15039062 97.27148438 C-20.27082357 92.11502235 -20.46014678 86.96530976 -20.6875 81.8125 C-30.32211693 81.8125 -44.80832369 95.97270619 -50.99609375 102.09765625 Z " fill="#14446D" transform="translate(3241.6875,309.1875)"/>
<path d="M0 0 C9.29894439 8.55297098 13.36523584 20.48111402 13.92759705 32.87623978 C13.9793876 35.53315822 14.00183177 38.1887922 14.01367188 40.84619141 C14.02611183 42.35792938 14.02611183 42.35792938 14.0388031 43.90020752 C14.05615627 46.08430062 14.07133585 48.26841184 14.08457947 50.45253372 C14.10578808 53.93921684 14.13280922 57.42581393 14.16125488 60.91244507 C14.22082803 68.34914747 14.27280867 75.78589364 14.32421875 83.22265625 C14.3921972 92.94405157 14.46379196 102.66540773 14.54296875 112.38671875 C14.55235474 113.55341347 14.56174072 114.72010818 14.57141113 115.92215729 C14.71551725 133.16676814 15.09253361 150.36647131 15.82421875 167.59765625 C3.61421875 167.59765625 -8.59578125 167.59765625 -21.17578125 167.59765625 C-21.83578125 163.30765625 -22.49578125 159.01765625 -23.17578125 154.59765625 C-24.16578125 155.42265625 -25.15578125 156.24765625 -26.17578125 157.09765625 C-30.29523574 160.19277412 -34.64895002 162.54241614 -39.23828125 164.84765625 C-39.91052734 165.18861328 -40.58277344 165.52957031 -41.27539062 165.88085938 C-52.60660749 171.45231791 -65.31009403 172.42614247 -77.6796875 169.875 C-80.33294913 168.96351791 -82.7125133 167.93485885 -85.17578125 166.59765625 C-85.83578125 166.24703125 -86.49578125 165.89640625 -87.17578125 165.53515625 C-95.2844861 160.50216703 -99.39967455 151.3915749 -101.734375 142.4609375 C-104.44896412 124.85214259 -101.59622047 107.56084124 -91.25390625 92.8671875 C-89.30210794 90.36691874 -87.28150454 87.96919076 -85.17578125 85.59765625 C-84.65628906 84.99566406 -84.13679688 84.39367187 -83.6015625 83.7734375 C-68.76326306 67.73910385 -46.45167078 58.34764435 -26.17578125 51.59765625 C-25.51578125 51.59765625 -24.85578125 51.59765625 -24.17578125 51.59765625 C-24.25746786 48.40917063 -24.37023199 45.22248638 -24.48828125 42.03515625 C-24.51083984 41.13990234 -24.53339844 40.24464844 -24.55664062 39.32226562 C-24.83071575 32.52021943 -25.52007986 27.05903802 -30.73828125 22.22265625 C-35.76568376 18.87105458 -40.23728034 19.04393117 -46.17578125 19.59765625 C-50.98748021 20.86516755 -54.15847261 23.07078886 -56.98828125 27.16015625 C-59.79904482 32.50659479 -59.79904482 32.50659479 -62.17578125 42.59765625 C-74.38578125 42.92765625 -86.59578125 43.25765625 -99.17578125 43.59765625 C-97.81478961 27.26575659 -93.72463158 12.84533613 -81.3359375 1.33984375 C-58.42792303 -17.13569775 -23.48387882 -17.76455778 0 0 Z M-50.17578125 96.59765625 C-50.89378906 97.20996094 -51.61179687 97.82226562 -52.3515625 98.453125 C-58.76511342 104.3110764 -63.3885346 111.3049365 -64.68359375 120.01171875 C-64.91357947 126.68130471 -64.40755011 131.36362634 -60.17578125 136.59765625 C-56.68475883 139.83931993 -53.96220353 140.87602421 -49.30078125 141.09765625 C-39.3348305 140.60679599 -32.95792346 134.44282952 -26.17578125 127.59765625 C-24.07094379 124.44040006 -23.92857535 123.72391014 -23.94873047 120.1262207 C-23.94895706 118.77515984 -23.94895706 118.77515984 -23.94918823 117.39680481 C-23.9595108 116.4279686 -23.96983337 115.45913239 -23.98046875 114.4609375 C-23.98471359 112.96907173 -23.98471359 112.96907173 -23.98904419 111.44706726 C-24.00024636 108.26797495 -24.02535111 105.08916353 -24.05078125 101.91015625 C-24.060811 99.75586344 -24.06993686 97.60156622 -24.078125 95.44726562 C-24.10018579 90.16396653 -24.13366369 84.88083146 -24.17578125 79.59765625 C-31.86982073 79.59765625 -44.83009713 91.87642373 -50.17578125 96.59765625 Z " fill="#14446D" transform="translate(1326.17578125,311.40234375)"/>
<path d="M0 0 C9.37376828 8.31645772 13.22331636 19.87355264 14.3203125 32.05859375 C14.47058514 35.58971574 14.49434519 39.11784752 14.50976562 42.65185547 C14.52220558 44.20030151 14.52220558 44.20030151 14.53489685 45.7800293 C14.55223281 48.01376735 14.56741694 50.24752292 14.58067322 52.48128891 C14.60188747 56.04283823 14.62890501 59.60430352 14.65734863 63.165802 C14.71688005 70.75503222 14.76892945 78.34430466 14.8203125 85.93359375 C14.88005412 94.67685628 14.94301697 103.42007958 15.01219177 112.16327286 C15.03820692 115.6244502 15.05936827 119.08563269 15.0802002 122.54684448 C15.18833373 137.73670173 15.67549874 152.88132243 16.3203125 168.05859375 C4.1103125 168.05859375 -8.0996875 168.05859375 -20.6796875 168.05859375 C-21.3396875 164.09859375 -21.9996875 160.13859375 -22.6796875 156.05859375 C-25.90376649 156.05859375 -28.04143516 158.39656139 -30.5546875 160.24609375 C-44.37048628 170.13586908 -57.97406907 172.57845478 -74.6796875 171.05859375 C-79.12108597 169.96970562 -82.78267729 168.43240708 -86.6796875 166.05859375 C-87.28683594 165.69765625 -87.89398437 165.33671875 -88.51953125 164.96484375 C-96.07849571 159.579322 -99.74939066 149.77831886 -101.6796875 141.05859375 C-102.08951061 137.46258705 -102.15783033 133.92548568 -102.1171875 130.30859375 C-102.10888916 129.34775879 -102.10059082 128.38692383 -102.09204102 127.39697266 C-101.66949452 109.48160286 -94.23115479 95.65297204 -81.6796875 83.05859375 C-81.03902344 82.39472656 -80.39835937 81.73085938 -79.73828125 81.046875 C-65.19451452 67.01541317 -43.29213138 56.32718448 -23.6796875 52.05859375 C-23.7674265 49.0573148 -23.87440462 46.05872379 -23.9921875 43.05859375 C-24.01474609 42.21941406 -24.03730469 41.38023437 -24.06054688 40.515625 C-24.34903371 33.74929745 -25.11739426 27.49589707 -30.2421875 22.62109375 C-35.29808498 19.38013383 -39.75957876 19.48336051 -45.6796875 20.05859375 C-50.952533 21.66223602 -54.85897174 24.25292986 -57.6796875 29.05859375 C-59.33566078 33.6460873 -60.4978154 38.33110535 -61.6796875 43.05859375 C-73.8896875 43.38859375 -86.0996875 43.71859375 -98.6796875 44.05859375 C-98.6796875 28.24543695 -92.88024742 14.71318353 -82.0234375 3.27734375 C-60.28834575 -17.29854311 -23.62791685 -17.11818465 0 0 Z M-51.22265625 98.53125 C-52.43888672 99.78228516 -52.43888672 99.78228516 -53.6796875 101.05859375 C-54.31519531 101.69667969 -54.95070313 102.33476562 -55.60546875 102.9921875 C-60.99872953 108.78693172 -64.21922405 115.86771645 -64.7734375 123.79296875 C-64.57521316 128.58339022 -63.45883383 133.07124944 -60.2109375 136.69921875 C-55.50197668 140.71568533 -52.34192355 141.42760784 -46.328125 141.32421875 C-37.70880041 140.45974372 -31.52252968 133.95573744 -25.6796875 128.05859375 C-23.57485004 124.90133756 -23.4324816 124.18484764 -23.45263672 120.5871582 C-23.45286331 119.23609734 -23.45286331 119.23609734 -23.45309448 117.85774231 C-23.46341705 116.8889061 -23.47373962 115.92006989 -23.484375 114.921875 C-23.48861984 113.43000923 -23.48861984 113.43000923 -23.49295044 111.90800476 C-23.50415261 108.72891245 -23.52925736 105.55010103 -23.5546875 102.37109375 C-23.56471725 100.21680094 -23.57384311 98.06250372 -23.58203125 95.90820312 C-23.60409204 90.62490403 -23.63756994 85.34176896 -23.6796875 80.05859375 C-32.47358726 80.05859375 -45.234931 92.69096532 -51.22265625 98.53125 Z " fill="#14446D" transform="translate(2657.6796875,310.94140625)"/>
<path d="M0 0 C9.11865276 8.83051689 14.01610533 20.27380826 17.125 32.375 C17.4446875 33.60347656 17.764375 34.83195312 18.09375 36.09765625 C21.55085379 52.5989248 20.125 68.11300001 20.125 85.375 C-4.955 85.375 -30.035 85.375 -55.875 85.375 C-55.75739697 112.85003678 -55.75739697 112.85003678 -43.875 137.375 C-39.60353251 139.91625281 -35.72926837 140.01772543 -30.875 139.375 C-25.36129743 137.04227968 -23.29403433 133.31662986 -20.90625 128.07421875 C-17.71321199 119.71668365 -17.56401233 111.33216032 -16.875 102.375 C-4.665 102.375 7.545 102.375 20.125 102.375 C20.125 123.79365685 15.99841409 143.60234007 1 159.6484375 C-11.05778593 171.2325247 -25.46754696 172.97774494 -41.4296875 172.6875 C-55.49564977 172.10686172 -66.14554283 165.96258726 -75.74609375 155.89453125 C-87.62072815 141.84106485 -91.67578356 123.20091974 -93.875 105.375 C-94.00648438 104.32699219 -94.13796875 103.27898437 -94.2734375 102.19921875 C-97.36332927 70.6739716 -96.28027256 31.34994994 -75.875 5.375 C-75.276875 4.488125 -74.67875 3.60125 -74.0625 2.6875 C-54.61992939 -17.86607464 -21.13549611 -16.99481118 0 0 Z M-42.875 21.375 C-50.9473221 27.91435709 -53.69003638 39.45872553 -54.875 49.375 C-54.875 51.685 -54.875 53.995 -54.875 56.375 C-42.335 56.375 -29.795 56.375 -16.875 56.375 C-16.875 45.50986754 -17.48746613 32.48128857 -25.109375 23.80078125 C-30.56884822 19.39213584 -36.4900248 18.24274802 -42.875 21.375 Z " fill="#14446D" transform="translate(1057.875,310.625)"/>
<path d="M0 0 C18.72948267 22.05004832 15.875 54.66866842 15.875 81 C-9.205 81 -34.285 81 -60.125 81 C-59.65775922 109.06300573 -59.65775922 109.06300573 -46.875 134.0625 C-41.90178302 135.75791488 -37.17544815 135.86574478 -32.3125 133.8125 C-24.09950746 127.00744904 -22.79256139 117.5206764 -21.4375 107.4375 C-21.004375 104.323125 -20.57125 101.20875 -20.125 98 C-8.245 98 3.635 98 15.875 98 C15.875 114.29973592 15.875 114.29973592 14.1875 121.125 C14.00815918 121.88288818 13.82881836 122.64077637 13.64404297 123.42163086 C9.82519752 138.84263274 2.50697344 152.55255307 -10.8125 161.75 C-24.16033063 169.29331424 -40.02809949 170.03214845 -54.921875 167.3046875 C-57.82469663 166.40977617 -60.41460524 165.36580143 -63.125 164 C-64.43791016 163.34644531 -64.43791016 163.34644531 -65.77734375 162.6796875 C-80.34035054 154.66455895 -87.96572606 141.00020291 -93.09765625 125.65625 C-96.52617074 113.45438856 -98.26567406 100.92201898 -98.328125 88.26171875 C-98.33382507 87.34147415 -98.33952515 86.42122955 -98.34539795 85.47309875 C-98.35480222 83.52919648 -98.36136363 81.58527859 -98.36523438 79.64135742 C-98.37484656 76.73391059 -98.40587498 73.82720052 -98.4375 70.91992188 C-98.58371731 45.20100902 -95.13656093 16.58220326 -76.49609375 -2.78125 C-54.48674668 -23.37648746 -20.53356123 -20.96792502 0 0 Z M-48.125 18 C-57.03941593 27.69567935 -57.5252663 39.20213041 -59.125 52 C-46.585 52 -34.045 52 -21.125 52 C-21.125 39.99621338 -21.34349283 29.58256817 -29.125 20 C-34.84912873 14.27587127 -41.35939307 13.62463743 -48.125 18 Z " fill="#14446D" transform="translate(2268.125,315)"/>
<path d="M0 0 C10.93378847 11.43077886 11.21468488 29.06249758 11.09057617 44.00195312 C11.08972675 45.43286623 11.09021117 46.86378064 11.09190369 48.29469299 C11.09275279 52.12225503 11.07530649 55.94952609 11.05418181 59.77702141 C11.03523064 63.79815001 11.03365023 67.81928772 11.03010559 71.8404541 C11.02083862 79.42962631 10.99629856 87.01866647 10.96605712 94.60778093 C10.93234496 103.2585128 10.91598514 111.90925148 10.90097082 120.56003284 C10.86974319 138.33177828 10.81479942 156.10334308 10.75 173.875 C-1.46 173.875 -13.67 173.875 -26.25 173.875 C-26.279729 168.06998901 -26.279729 168.06998901 -26.31005859 162.14770508 C-26.37709986 149.33136932 -26.45464031 136.51511487 -26.53752708 123.69887257 C-26.58750475 115.93183647 -26.63394846 108.16481014 -26.671875 100.39770508 C-26.70496702 93.62255916 -26.74489118 86.84749259 -26.79279006 80.0724346 C-26.81788532 76.48994731 -26.83971514 72.90751149 -26.85334396 69.32496071 C-26.86874139 65.31133378 -26.89940212 61.29795476 -26.93115234 57.28442383 C-26.93331253 56.11556641 -26.93547272 54.94670898 -26.93769836 53.74243164 C-26.64334327 38.6659809 -26.64334327 38.6659809 -33.25 25.875 C-38.29811716 24.61297071 -43.74405501 25.30356302 -48.5 27.375 C-52.99347064 30.15981601 -56.54260571 33.290099 -59.25 37.875 C-60.24727797 42.34628897 -60.19458477 46.70090733 -60.13647461 51.26757812 C-60.14437458 52.60866348 -60.15534335 53.94973371 -60.16912842 55.29077148 C-60.19772564 58.91045116 -60.18368501 62.52882983 -60.16168666 66.14850807 C-60.14600136 69.93890763 -60.16994432 73.72905776 -60.18959045 77.51940918 C-60.22077065 84.68748446 -60.21657917 91.85508015 -60.19951588 99.02318525 C-60.18181498 107.1877629 -60.20379516 115.35208514 -60.22902286 123.5166254 C-60.2800065 140.30292739 -60.27619971 157.08861407 -60.25 173.875 C-72.79 173.875 -85.33 173.875 -98.25 173.875 C-98.25 115.465 -98.25 57.055 -98.25 -3.125 C-87.03 -3.125 -75.81 -3.125 -64.25 -3.125 C-63.755 5.29 -63.755 5.29 -63.25 13.875 C-62.21875 12.740625 -61.1875 11.60625 -60.125 10.4375 C-43.77859668 -5.87986886 -20.469117 -13.38365343 0 0 Z " fill="#14446D" transform="translate(3104.25,305.125)"/>
<path d="M0 0 C0.55042969 0.48210937 1.10085938 0.96421875 1.66796875 1.4609375 C12.96927879 12.90176988 12.31288463 33.57138705 12.22705078 48.55444336 C12.22648458 49.93594861 12.22680729 51.31745445 12.22793579 52.69895935 C12.22850216 56.39635503 12.21686603 60.093617 12.20278788 63.79098201 C12.19015904 67.67465812 12.18910056 71.55833838 12.18673706 75.44203186 C12.18055759 82.77266663 12.16419538 90.1032407 12.14403808 97.43384892 C12.12156811 105.78953102 12.11065794 114.14521626 12.10064721 122.50092113 C12.07982538 139.66732174 12.04319417 156.83363888 12 174 C-0.54 174 -13.08 174 -26 174 C-26.01458252 169.89699463 -26.02916504 165.79398926 -26.04418945 161.56665039 C-26.09454701 148.00387728 -26.16099486 134.44122294 -26.23571491 120.87856388 C-26.28062135 112.65627896 -26.32004781 104.43403685 -26.34643555 96.21166992 C-26.36945745 89.04246902 -26.40290208 81.8734042 -26.44870156 74.70431131 C-26.47257747 70.91065787 -26.49134303 67.11713872 -26.49761391 63.32341194 C-26.50369043 59.74710664 -26.52378185 56.17114472 -26.55427551 52.59496689 C-26.56715822 50.66801202 -26.56549284 48.74097676 -26.5632782 46.8139801 C-26.63338963 40.2988546 -26.76653304 33.83678376 -30 28 C-34.28424637 25.14383575 -37.97153459 25.39568888 -43 26 C-48.45597674 27.74629013 -52.18226723 30.74595491 -56 35 C-56.79784015 35.64701606 -56.79784015 35.64701606 -57.61179829 36.30710316 C-59.5868728 38.71568498 -59.38448822 40.43394349 -59.39872742 43.52384949 C-59.41126556 44.67229843 -59.42380371 45.82074738 -59.4367218 47.0039978 C-59.43528671 48.26491241 -59.43385162 49.52582703 -59.43237305 50.82495117 C-59.44138852 52.16528733 -59.45171521 53.50561522 -59.46325684 54.84593201 C-59.49087865 58.48615579 -59.5001183 62.12622336 -59.50611091 65.76653838 C-59.51548118 69.57027763 -59.54168341 73.37389958 -59.56611633 77.17756653 C-59.60982224 84.38105116 -59.638344 91.58451308 -59.66143972 98.78809005 C-59.68846952 106.98879642 -59.73238234 115.18938502 -59.77772844 123.39000738 C-59.87063335 140.25995766 -59.94005832 157.1298955 -60 174 C-72.21 174 -84.42 174 -97 174 C-97 115.59 -97 57.18 -97 -3 C-85.78 -3 -74.56 -3 -63 -3 C-62.505 4.92 -62.505 4.92 -62 13 C-60.63875 11.68 -59.2775 10.36 -57.875 9 C-43.23901627 -4.17863115 -17.16456618 -15.32111635 0 0 Z " fill="#14446D" transform="translate(2045,305)"/>
<path d="M0 0 C10.33475172 12.1598249 10.15534461 29.83326685 10.11352539 44.94335938 C10.11324292 46.34353636 10.11340243 47.74371349 10.1139679 49.14389038 C10.11425351 52.92430095 10.10839493 56.70467947 10.10139394 60.48508263 C10.09512112 64.44354462 10.0945535 68.40200744 10.09336853 72.36047363 C10.09026677 79.84714974 10.082069 87.33381117 10.07201904 94.82048082 C10.06082197 103.34770884 10.05533841 111.87493759 10.05032361 120.40217113 C10.03988538 137.93479076 10.02155431 155.46739027 10 173 C-2.54 173 -15.08 173 -28 173 C-28.01458252 168.86146484 -28.02916504 164.72292969 -28.04418945 160.45898438 C-28.09452897 146.7844459 -28.16097327 133.11002545 -28.23571491 119.43560028 C-28.28063709 111.14490532 -28.32005997 102.85425298 -28.34643555 94.56347656 C-28.36944465 87.3353221 -28.40287511 80.1073029 -28.44870156 72.87925577 C-28.47259464 69.05377619 -28.491349 65.22843024 -28.49761391 61.40287781 C-28.50368259 57.79784926 -28.52374616 54.19316244 -28.55427551 50.58826065 C-28.56718204 48.64322135 -28.56549069 46.6981021 -28.5632782 44.75302124 C-28.63380253 38.15993119 -28.99565626 32.9282374 -32 27 C-36.28424637 24.14383575 -39.97153459 24.39568888 -45 25 C-50.45597674 26.74629013 -54.18226723 29.74595491 -58 34 C-58.79784015 34.64701606 -58.79784015 34.64701606 -59.61179829 35.30710316 C-61.5868728 37.71568498 -61.38448822 39.43394349 -61.39872742 42.52384949 C-61.41126556 43.67229843 -61.42380371 44.82074738 -61.4367218 46.0039978 C-61.43528671 47.26491241 -61.43385162 48.52582703 -61.43237305 49.82495117 C-61.44138852 51.16528733 -61.45171521 52.50561522 -61.46325684 53.84593201 C-61.49087865 57.48615579 -61.5001183 61.12622336 -61.50611091 64.76653838 C-61.51548118 68.57027763 -61.54168341 72.37389958 -61.56611633 76.17756653 C-61.60982224 83.38105116 -61.638344 90.58451308 -61.66143972 97.78809005 C-61.68846952 105.98879642 -61.73238234 114.18938502 -61.77772844 122.39000738 C-61.87063335 139.25995766 -61.94005832 156.1298955 -62 173 C-74.21 173 -86.42 173 -99 173 C-99 114.59 -99 56.18 -99 -4 C-87.78 -4 -76.56 -4 -65 -4 C-64.505 4.415 -64.505 4.415 -64 13 C-62.741875 11.659375 -61.48375 10.31875 -60.1875 8.9375 C-51.48549456 0.27634905 -39.91409729 -7.01923911 -27.3515625 -8.02734375 C-17.34838192 -7.9110277 -7.67466363 -6.91294608 0 0 Z " fill="#14446D" transform="translate(1475,306)"/>
<path d="M0 0 C0.55042969 0.48210937 1.10085937 0.96421875 1.66796875 1.4609375 C12.96927879 12.90176988 12.31288463 33.57138705 12.22705078 48.55444336 C12.22648458 49.93594861 12.22680729 51.31745445 12.22793579 52.69895935 C12.22850216 56.39635503 12.21686603 60.093617 12.20278788 63.79098201 C12.19015904 67.67465812 12.18910056 71.55833838 12.18673706 75.44203186 C12.18055759 82.77266663 12.16419538 90.1032407 12.14403808 97.43384892 C12.12156811 105.78953102 12.11065794 114.14521626 12.10064721 122.50092113 C12.07982538 139.66732174 12.04319417 156.83363888 12 174 C-0.54 174 -13.08 174 -26 174 C-26.01458252 169.89699463 -26.02916504 165.79398926 -26.04418945 161.56665039 C-26.09454701 148.00387728 -26.16099486 134.44122294 -26.23571491 120.87856388 C-26.28062135 112.65627896 -26.32004781 104.43403685 -26.34643555 96.21166992 C-26.36945745 89.04246902 -26.40290208 81.8734042 -26.44870156 74.70431131 C-26.47257747 70.91065787 -26.49134303 67.11713872 -26.49761391 63.32341194 C-26.50369043 59.74710664 -26.52378185 56.17114472 -26.55427551 52.59496689 C-26.56715822 50.66801202 -26.56549284 48.74097676 -26.5632782 46.8139801 C-26.63338963 40.2988546 -26.76653304 33.83678376 -30 28 C-34.28046951 25.14635366 -37.97503504 25.38865411 -43 26 C-49.40995047 28.15143666 -55.39723034 32.2183521 -59 38 C-59.45615964 40.67473521 -59.45615964 40.67473521 -59.39872742 43.644104 C-59.41126556 44.79392761 -59.42380371 45.94375122 -59.4367218 47.12841797 C-59.43528671 48.3857373 -59.43385162 49.64305664 -59.43237305 50.93847656 C-59.44139141 52.2789602 -59.45171881 53.61943558 -59.46325684 54.9598999 C-59.49084467 58.59593247 -59.5001137 62.23180864 -59.50611091 65.86793232 C-59.51548999 69.66899633 -59.54169297 73.46994331 -59.56611633 77.27093506 C-59.60979792 84.46730321 -59.63833465 91.66364867 -59.66143972 98.86010909 C-59.68848253 107.05358359 -59.73239458 115.24694045 -59.77772844 123.44033098 C-59.87059853 140.29350675 -59.94004142 157.14667013 -60 174 C-72.21 174 -84.42 174 -97 174 C-97 115.59 -97 57.18 -97 -3 C-85.78 -3 -74.56 -3 -63 -3 C-62.505 4.92 -62.505 4.92 -62 13 C-60.63875 11.68 -59.2775 10.36 -57.875 9 C-43.23901627 -4.17863115 -17.16456618 -15.32111635 0 0 Z " fill="#14446D" transform="translate(2517,305)"/>
<path d="M0 0 C17.94702532 15.96955676 23.03465686 40.7755168 24.81030273 63.71801758 C26.67719975 96.01749837 26.08856777 132.73205535 4.8125 159.1875 C-3.91096792 168.63633286 -15.53599876 173.65670296 -28.26171875 174.37890625 C-44.66940729 174.90791349 -59.05691493 172.37332516 -71.625 160.9375 C-88.19235524 143.15885227 -93.06712125 116.68148939 -93.203125 93.109375 C-93.21013931 92.29059875 -93.21715363 91.47182251 -93.22438049 90.62823486 C-93.24177757 88.00209996 -93.24823186 85.3761904 -93.25 82.75 C-93.25067474 81.85394043 -93.25134949 80.95788086 -93.25204468 80.03466797 C-93.21931302 52.70893211 -90.6719098 23.04157612 -70.61328125 2.34375 C-66.72400529 -1.14438988 -62.69063423 -3.72480865 -58 -6 C-57.36835938 -6.31453125 -56.73671875 -6.6290625 -56.0859375 -6.953125 C-38.17085214 -14.72903439 -15.4241479 -11.71422105 0 0 Z M-46 28 C-61.71717706 50.81525702 -57.02039034 94.01869424 -52.33984375 119.609375 C-50.45846907 127.87508669 -47.94425082 135.54032768 -41.0546875 140.921875 C-37.07321701 143.01101161 -33.31920966 143.02772191 -29 142 C-23.2955652 139.00679847 -20.08128284 133.94375656 -18 128 C-14.90807798 117.04655426 -13.84517754 106.44913317 -13.83203125 95.11328125 C-13.82870285 94.09380905 -13.82537445 93.07433685 -13.82194519 92.02397156 C-13.81690834 89.87674405 -13.81453586 87.7295088 -13.81469727 85.58227539 C-13.81251796 82.33922048 -13.79434687 79.09651022 -13.77539062 75.85351562 C-13.74568176 65.06230213 -13.86567538 54.61776004 -16 44 C-16.14074951 43.29045166 -16.28149902 42.58090332 -16.42651367 41.84985352 C-18.14815563 34.14632483 -21.02703447 28.23737864 -27 23 C-34.27581798 19.36209101 -41.21687268 22.04027451 -46 28 Z " fill="#14446D" transform="translate(2952,309)"/>
<path d="M0 0 C14.83945347 11.40270888 24.05536129 26.62328282 26.859375 45.14453125 C28.33358185 63.71953752 24.08799857 79.83879563 13.171875 95.08203125 C12.72328125 95.71625 12.2746875 96.35046875 11.8125 97.00390625 C1.02395213 110.83863234 -15.88219493 117.91368106 -32.828125 120.08203125 C-51.34200802 121.50791711 -68.69876594 116.07264675 -82.828125 104.08203125 C-95.10529988 93.49975839 -103.59123558 77.86958978 -105.04907227 61.61914062 C-105.96445038 41.5779961 -101.74531308 24.25543266 -88.37890625 8.6875 C-64.48352643 -15.72018505 -28.03016968 -19.00941065 0 0 Z " fill="#DB332C" transform="translate(360.828125,408.91796875)"/>
<path d="M0 0 C0.86625 0.5775 1.7325 1.155 2.625 1.75 C10.94966076 9.63652072 16.50254855 20.874989 19 32 C19 33.32 19 34.64 19 36 C13.50534331 37.42477005 8.02586453 38.63376068 2.4375 39.625 C1.72142578 39.7590625 1.00535156 39.893125 0.26757812 40.03125 C-4.22811965 40.83303049 -8.43388164 41.13200342 -13 41 C-13.17015625 40.27554688 -13.3403125 39.55109375 -13.515625 38.8046875 C-15.3761747 31.38228178 -17.12468578 25.21390226 -24 21 C-28.85292793 19.38235736 -34.2233387 19.0057595 -39.10546875 20.75390625 C-42.50627669 22.60295961 -45.26314202 24.52628404 -47 28 C-48.67677159 34.07829702 -47.95410784 37.83158606 -44.87109375 43.3125 C-36.91244044 54.74371812 -25.29539699 62.42224695 -14.14404297 70.44140625 C1.87499384 82.08630844 17.00640171 95.69394276 20.53515625 116.09375 C22.14113038 131.30435557 18.92603377 144.15158911 10.1484375 156.6328125 C2.25218969 166.21879235 -8.67313407 172.35551778 -21 174 C-39.87915677 175.58220698 -54.77902435 173.47650166 -69.95703125 161.44921875 C-79.52879016 152.74172701 -84.96931289 140.35587821 -88 128 C-88.03125953 126.33362651 -88.0369018 124.66625809 -88 123 C-84.08714061 121.9970154 -80.17274436 121.00029303 -76.25683594 120.00927734 C-74.92567238 119.67146625 -73.59493658 119.33196479 -72.26464844 118.99072266 C-70.3494491 118.49975601 -68.43255319 118.01542258 -66.515625 117.53125 C-65.36352539 117.23798828 -64.21142578 116.94472656 -63.02441406 116.64257812 C-60 116 -60 116 -56 116 C-55.63648438 117.07378906 -55.27296875 118.14757812 -54.8984375 119.25390625 C-50.35845928 132.40158543 -50.35845928 132.40158543 -40.1875 141.4375 C-35.00465457 143.71795199 -30.22546266 143.91340535 -24.79296875 142.375 C-20.09088797 140.42088851 -17.51469723 137.92095965 -15.56640625 133.203125 C-14.31445661 128.3334726 -14.89639228 124.29615085 -17.06640625 119.78125 C-23.46758174 109.42265262 -32.93918487 102.09898552 -42.52832031 94.89868164 C-59.65070838 82.04173133 -77.77879621 67.81796647 -83 46 C-84.54003666 31.14109209 -82.49545494 17.91541311 -73 6 C-72.51015625 5.38511719 -72.0203125 4.77023437 -71.515625 4.13671875 C-64.81442503 -3.34407627 -54.85352299 -8.38466836 -45 -10 C-44.26910156 -10.11988281 -43.53820313 -10.23976563 -42.78515625 -10.36328125 C-27.09834415 -12.47350071 -12.66210367 -9.54245494 0 0 Z " fill="#14446D" transform="translate(1600,309)"/>
<path d="M0 0 C12.21 0 24.42 0 37 0 C39.25022974 7.8758041 39.25022974 7.8758041 39.8657074 11.02110291 C40.00716187 11.73648727 40.14861633 12.45187164 40.2943573 13.18893433 C40.5149456 14.3289238 40.5149456 14.3289238 40.73999023 15.49194336 C40.98191605 16.72312141 40.98191605 16.72312141 41.22872925 17.97917175 C41.75874166 20.68207892 42.28402071 23.38587599 42.80859375 26.08984375 C43.17965312 27.99533341 43.55075268 29.90081524 43.92189026 31.80628967 C44.70001297 35.80620235 45.47538959 39.8066371 46.24926758 43.80737305 C47.03453089 47.86470136 47.82493387 51.9209706 48.62036133 55.97631836 C57.06661754 99.04829031 57.06661754 99.04829031 59 119 C59.07305862 118.4229834 59.14611725 117.8459668 59.22138977 117.25146484 C62.20762408 94.30430703 66.91447923 71.71972665 71.56048584 49.06390381 C72.40643181 44.93019 73.24550784 40.79509448 74.08439159 36.65994263 C75.08881717 31.71026503 76.09692454 26.76133975 77.10546875 21.8125 C77.39134889 20.40762329 77.39134889 20.40762329 77.68300438 18.97436523 C78.21916848 16.34316548 78.75793689 13.71251376 79.29760742 11.08203125 C79.53525818 9.91351372 79.53525818 9.91351372 79.77770996 8.72138977 C80.39037609 5.74671876 81.03850772 2.88447684 82 0 C93.88 0 105.76 0 118 0 C117.31344691 5.49242472 116.50259056 10.67251214 115.24438477 16.02392578 C115.06797864 16.78888776 114.89157251 17.55384974 114.70982075 18.34199238 C114.12415402 20.8773301 113.53278165 23.41130081 112.94140625 25.9453125 C112.52040283 27.76277997 112.09976772 29.58033279 111.67947388 31.39796448 C110.54669414 36.29252593 109.40907054 41.18594991 108.27059555 46.0791893 C107.08669047 51.17165281 105.90737371 56.26517826 104.7277832 61.35864258 C103.03051591 68.6858721 101.33195673 76.0127997 99.63170528 83.33933735 C96.61240888 96.35039734 93.60359515 109.36385279 90.6015625 122.37890625 C90.28475808 123.75236584 90.28475808 123.75236584 89.96155357 125.15357208 C88.93334013 129.61151877 87.90531991 134.06950997 86.87741089 138.52752686 C84.98584007 146.73085845 83.09240541 154.93375995 81.19921875 163.13671875 C79.61560547 169.99904297 79.61560547 169.99904297 78 177 C65.46 177 52.92 177 40 177 C36.70396851 162.84268242 33.40809388 148.68532835 30.11246967 134.52791595 C28.58052474 127.94697452 27.04851768 121.36604756 25.51635742 114.78515625 C25.22301073 113.52514801 24.92966404 112.26513977 24.62742805 110.96694946 C24.03480835 108.42151248 23.44216069 105.876082 22.8494854 103.33065796 C21.36259414 96.94418346 19.87660271 90.55750179 18.3923645 84.17041016 C15.65587234 72.39663361 12.91475499 60.62406121 10.14920902 48.85707855 C8.92316823 43.63993888 7.70209001 38.42164021 6.48106956 33.20332336 C5.90158557 30.73173418 5.32013402 28.2606054 4.73662758 25.78996277 C3.93296797 22.3865106 3.13603128 18.98154939 2.34057617 15.57617188 C2.10169111 14.57244537 1.86280605 13.56871887 1.61668205 12.53457642 C1.40203363 11.60982513 1.18738522 10.68507385 0.9662323 9.7322998 C0.77845813 8.93406548 0.59068396 8.13583115 0.39721966 7.3134079 C0 5 0 5 0 0 Z " fill="#14446D" transform="translate(1093,302)"/>
<path d="M0 0 C12.21 0 24.42 0 37 0 C37 15.84 37 31.68 37 48 C44.59 48 52.18 48 60 48 C60 58.23 60 68.46 60 79 C52.41 79 44.82 79 37 79 C37.06293463 92.69993043 37.1383592 106.39963627 37.23571491 120.09936619 C37.28042397 126.46084385 37.31967918 132.82225738 37.34643555 139.18383789 C37.37246278 145.32421393 37.41286175 151.46434328 37.46318626 157.60456657 C37.47985877 159.94605374 37.49137064 162.28758358 37.49761391 164.62912178 C37.50725048 167.91129484 37.53530581 171.19283621 37.56762695 174.47485352 C37.56619186 175.44086487 37.56475677 176.40687622 37.5632782 177.40216064 C37.6411871 183.0039983 38.1281892 187.12698033 41 192 C46.89442719 196.04349839 46.89442719 196.04349839 59 196 C59 206.56 59 217.12 59 228 C43.09360689 230.4471374 27.9445882 232.31917741 14 223 C4.06868703 214.48989216 1.58136783 203.50687059 0 191 C-0.2408471 187.11423161 -0.25492267 183.24867226 -0.22705078 179.35644531 C-0.22734283 178.26229309 -0.22763489 177.16814087 -0.22793579 176.04083252 C-0.22655655 172.46984572 -0.21106219 168.89907477 -0.1953125 165.328125 C-0.19157737 162.83420933 -0.18873276 160.34029218 -0.18673706 157.84637451 C-0.17914002 151.31656771 -0.1595256 144.78685139 -0.1373291 138.25708008 C-0.11568781 131.58025877 -0.10771723 124.90340912 -0.09765625 118.2265625 C-0.07627574 105.15100215 -0.0421877 92.07550863 0 79 C-6.6 79 -13.2 79 -20 79 C-20 68.77 -20 58.54 -20 48 C-13.4 48 -6.8 48 0 48 C0 32.16 0 16.32 0 0 Z " fill="#14446D" transform="translate(2096,254)"/>
<path d="M0 0 C12.21 0 24.42 0 37 0 C37 15.84 37 31.68 37 48 C44.59 48 52.18 48 60 48 C60 58.23 60 68.46 60 79 C52.41 79 44.82 79 37 79 C37.0855374 92.56950051 37.17930656 106.13887582 37.28752708 119.70821476 C37.33745113 126.00914881 37.38378171 132.31006642 37.421875 138.61108398 C37.45877667 144.69305814 37.50515027 150.77489338 37.55806351 156.85674858 C37.57658144 159.17591347 37.59169897 161.49510812 37.60334396 163.8143177 C37.62025066 167.06523966 37.64929705 170.31584526 37.68115234 173.56665039 C37.68331253 174.523311 37.68547272 175.47997162 37.68769836 176.46562195 C37.77796602 185.1688302 37.77796602 185.1688302 41.4375 192.875 C46.55533109 196.55983838 52.77376597 195.52105892 59 196 C59 206.56 59 217.12 59 228 C43.02345325 230.45793027 28.01575878 232.28102346 14 223 C4.17842555 214.39908012 1.36478523 202.5452396 0 190 C-0.51043463 181.39753169 -0.35099461 172.76935424 -0.29296875 164.15625 C-0.28736196 161.69047302 -0.28309699 159.22469267 -0.28010559 156.75891113 C-0.26874209 150.32117211 -0.23934939 143.88364151 -0.20599365 137.44598389 C-0.1751081 130.85594501 -0.16156102 124.2658719 -0.14648438 117.67578125 C-0.11447041 104.78374864 -0.06177328 91.89192439 0 79 C-6.6 79 -13.2 79 -20 79 C-20 68.77 -20 58.54 -20 48 C-13.4 48 -6.8 48 0 48 C0 32.16 0 16.32 0 0 Z " fill="#14446D" transform="translate(2710,254)"/>
<path d="M0 0 C13.53 0 27.06 0 41 0 C41 79.53 41 159.06 41 241 C27.47 241 13.94 241 0 241 C0 161.47 0 81.94 0 0 Z " fill="#14446D" transform="translate(1866,238)"/>
<path d="M0 0 C58.63636364 0 58.63636364 0 70.9296875 10.67578125 C89.96950358 30.43487927 89.50757121 62.5893961 89.1875 88.01171875 C88.6977811 110.6948862 85.91202644 134.85496757 69.38671875 151.94140625 C51.12598956 167.69165876 20.10100273 161 0 161 C0 107.87 0 54.74 0 0 Z M27 24 C27 61.29 27 98.58 27 137 C39.92680953 137.79703855 39.92680953 137.79703855 50.6875 132.9375 C61.31214211 119.44133299 60.49267609 99.88074692 60.39111328 83.57080078 C60.37501983 80.50377954 60.39105801 77.43807554 60.41015625 74.37109375 C60.50013367 49.97750635 60.50013367 49.97750635 51 28 C43.62052665 22.55612622 36.21838637 24 27 24 Z " fill="#2D8CCA" transform="translate(819,716)"/>
<path d="M0 0 C3.45794636 2.98640822 6.21320982 6.38749422 9 10 C9.81791016 9.20335937 9.81791016 9.20335937 10.65234375 8.390625 C18.25010797 1.27340314 26.11758136 -3.39389789 36.78125 -3.21484375 C42.20220147 -2.68992767 46.63292667 -1.09960246 50.875 2.3125 C60.26167887 14.18388798 58.27012261 30.63401374 58.1953125 44.953125 C58.19157596 47.06589625 58.18873202 49.17866926 58.18673706 51.29144287 C58.1791511 56.81513367 58.15954659 62.33871699 58.1373291 67.86236572 C58.1167614 73.51369778 58.10771212 79.16504744 58.09765625 84.81640625 C58.07629535 95.87765865 58.041155 106.93880352 58 118 C49.75 118 41.5 118 33 118 C32.970271 114.01873047 32.970271 114.01873047 32.93994141 109.95703125 C32.87293153 101.17194346 32.79529355 92.38697251 32.71247292 83.60202026 C32.66260042 78.27751249 32.61626966 72.9530237 32.578125 67.62841797 C32.54115784 62.4865836 32.49476705 57.34491153 32.44193649 52.20321655 C32.42345319 50.24493263 32.40832303 48.28661399 32.39665604 46.32827759 C32.3796895 43.57805891 32.35062992 40.82820702 32.31884766 38.078125 C32.31668747 37.27467148 32.31452728 36.47121796 32.31230164 35.64341736 C32.23625524 30.46722007 31.62001535 25.93622179 30 21 C27.14080976 18.67088101 27.14080976 18.67088101 23.6875 19.125 C18.52877146 20.34910508 14.42359693 22.93722849 11 27 C10.69007511 29.96571235 10.56255641 32.72569082 10.56762695 35.6940918 C10.5574353 36.5821048 10.54724365 37.4701178 10.53674316 38.38504028 C10.50652479 41.32316321 10.49733373 44.2609606 10.48828125 47.19921875 C10.47144112 49.23518464 10.45329179 51.2711401 10.43388367 53.30708313 C10.38630524 58.66806781 10.3565466 64.02901018 10.33044434 69.39013672 C10.30067837 74.85978556 10.25413446 80.32928847 10.20898438 85.79882812 C10.1228619 96.5324927 10.05710674 107.26614178 10 118 C1.75 118 -6.5 118 -15 118 C-15.01458252 115.24446777 -15.02916504 112.48893555 -15.04418945 109.64990234 C-15.09454623 100.5414693 -15.16114336 91.43320701 -15.23571491 82.32494164 C-15.28042556 76.80306841 -15.31968033 71.28126908 -15.34643555 65.75927734 C-15.37246134 60.4293675 -15.41285903 55.09974193 -15.46318626 49.77000809 C-15.4798598 47.7375098 -15.49137104 45.70496233 -15.49761391 43.67240524 C-15.50724954 40.82345592 -15.53530284 37.97523468 -15.56762695 35.12646484 C-15.56619186 34.28776855 -15.56475677 33.44907227 -15.5632782 32.58496094 C-15.64192777 27.67741731 -16.26297127 24.24405113 -19 20 C-22.87326039 18.1187021 -26.07609846 19.4069771 -29.9375 20.72265625 C-33.5395877 22.95349466 -36.48066144 25.80110353 -37.46912575 29.98629379 C-37.65341004 32.31757777 -37.68402278 34.60437687 -37.65942383 36.94287109 C-37.67514938 38.26091736 -37.67514938 38.26091736 -37.69119263 39.60559082 C-37.71987682 42.49523517 -37.71365891 45.38367666 -37.70703125 48.2734375 C-37.7201503 50.28269955 -37.73545515 52.29194842 -37.75285339 54.30117798 C-37.7926919 59.57837893 -37.80289314 64.85523477 -37.80688477 70.13256836 C-37.81621831 75.52207907 -37.8536333 80.9113872 -37.88867188 86.30078125 C-37.95323643 96.86722577 -37.98388944 107.43337039 -38 118 C-46.25 118 -54.5 118 -63 118 C-63 79.06 -63 40.12 -63 0 C-55.41 0 -47.82 0 -40 0 C-39.67 3.3 -39.34 6.6 -39 10 C-37.88625 8.948125 -36.7725 7.89625 -35.625 6.8125 C-25.6568865 -1.91623882 -12.35975009 -6.67160704 0 0 Z " fill="#2D8CCA" transform="translate(1325,759)"/>
<path d="M0 0 C12.54 0 25.08 0 38 0 C38 79.53 38 159.06 38 241 C25.46 241 12.92 241 0 241 C0 161.47 0 81.94 0 0 Z " fill="#14446D" transform="translate(3294,238)"/>
<path d="M0 0 C1.12664063 -0.00257813 2.25328125 -0.00515625 3.4140625 -0.0078125 C6.375 0.125 6.375 0.125 9.375 1.125 C9.375 14.655 9.375 28.185 9.375 42.125 C3.375 40.125 3.375 40.125 1.13671875 39.2734375 C-7.80881269 35.93781561 -15.82632932 36.35008645 -24.625 40.125 C-30.11050402 43.28971386 -34.83377191 47.33518066 -37.625 53.125 C-38.35722987 57.30696283 -38.31561645 61.43239778 -38.28442383 65.66967773 C-38.30014938 67.54389656 -38.30014938 67.54389656 -38.31619263 69.45597839 C-38.33998005 72.86499467 -38.34188638 76.27268215 -38.33389878 79.68168139 C-38.33076516 83.25053272 -38.35583297 86.81918592 -38.37785339 90.38795471 C-38.41524726 97.13804098 -38.4274386 103.88792581 -38.4304778 110.63810545 C-38.43517371 118.32624726 -38.46811403 126.01418792 -38.50337565 133.70224082 C-38.5752479 149.50985207 -38.60808903 165.31721989 -38.625 181.125 C-51.165 181.125 -63.705 181.125 -76.625 181.125 C-76.625 122.715 -76.625 64.305 -76.625 4.125 C-65.405 4.125 -54.185 4.125 -42.625 4.125 C-42.13 13.035 -42.13 13.035 -41.625 22.125 C-39.645 20.083125 -37.665 18.04125 -35.625 15.9375 C-25.37183172 5.59655645 -14.87837367 -0.03420316 0 0 Z " fill="#14446D" transform="translate(2390.625,297.875)"/>
<path d="M0 0 C13.028765 9.07316272 18.51797142 21.74680634 21.2734375 36.96875 C21.99890957 41.9675507 21.87109375 46.61794312 21.87109375 51.74609375 C13.29109375 51.74609375 4.71109375 51.74609375 -4.12890625 51.74609375 C-5.37890625 42.68359375 -5.37890625 42.68359375 -5.74316406 39.87084961 C-6.5715179 34.28542915 -8.12720683 30.51532279 -11.12890625 25.74609375 C-11.12890625 25.08609375 -11.12890625 24.42609375 -11.12890625 23.74609375 C-16.40799956 21.4731508 -20.735417 19.96909733 -26.34765625 21.83984375 C-32.29506632 24.86571905 -34.28468949 30.79258406 -36.28515625 36.76171875 C-43.73284189 63.10445869 -45.54615874 105.74540313 -32.75390625 130.80859375 C-30.65305001 134.23957791 -29.05616919 136.40725411 -25.12890625 137.74609375 C-20.57505409 138.40509276 -17.13723423 138.17269405 -12.87890625 136.37109375 C-5.125961 128.97055511 -4.12727639 119.52965756 -3.56640625 109.37109375 C-3.42203125 106.85484375 -3.27765625 104.33859375 -3.12890625 101.74609375 C5.45109375 101.74609375 14.03109375 101.74609375 22.87109375 101.74609375 C22.87109375 119.76937321 20.81930608 138.86660195 7.98828125 152.7890625 C-1.57097512 161.57982963 -11.86297228 164.21484903 -24.66015625 163.99609375 C-35.26599727 163.23170881 -44.09590466 158.70449028 -51.12890625 150.74609375 C-71.39528892 127.06585518 -70.59884885 89.29221318 -68.37890625 59.87109375 C-66.65542261 39.38557569 -62.39806981 17.88554369 -46.69140625 3.30859375 C-34.46165172 -6.39667017 -13.46704854 -7.93196804 0 0 Z " fill="#2D8CCA" transform="translate(2288.12890625,717.25390625)"/>
<path d="M0 0 C12.54 0 25.08 0 38 0 C38 58.41 38 116.82 38 177 C25.46 177 12.92 177 0 177 C0 118.59 0 60.18 0 0 Z " fill="#14446D" transform="translate(2792,302)"/>
<path d="M0 0 C6.9502223 4.88567287 11.54934112 10.41209891 13.8046875 18.67578125 C14.7780932 24.68007433 14.96580992 30.70482685 15.01000977 36.77563477 C15.01990936 37.63526321 15.02980896 38.49489166 15.04000854 39.38056946 C15.07129826 42.18858193 15.09625063 44.99661125 15.12109375 47.8046875 C15.14169146 49.76481028 15.16268862 51.72492891 15.18406677 53.68504333 C15.2389967 58.81906748 15.28853301 63.95312976 15.33691406 69.08721924 C15.38734275 74.33617506 15.44291677 79.5850762 15.49804688 84.83398438 C15.60527225 95.11453814 15.70631874 105.39513892 15.8046875 115.67578125 C7.5546875 115.67578125 -0.6953125 115.67578125 -9.1953125 115.67578125 C-9.8553125 113.03578125 -10.5153125 110.39578125 -11.1953125 107.67578125 C-12.13890625 108.38154297 -12.13890625 108.38154297 -13.1015625 109.1015625 C-23.82307228 116.90049206 -32.90067287 119.3742872 -46.1953125 117.67578125 C-52.39032921 115.94640314 -56.72978258 113.00002727 -60.2578125 107.6171875 C-64.81706224 98.17574116 -64.93509158 85.51133972 -61.5703125 75.61328125 C-52.79395551 55.65316379 -34.5117013 46.29165623 -15.1953125 38.67578125 C-14.2053125 38.34578125 -13.2153125 38.01578125 -12.1953125 37.67578125 C-11.4801896 27.67093628 -11.4801896 27.67093628 -15.1953125 18.67578125 C-17.64502874 17.45092313 -19.33765711 17.50855317 -22.0703125 17.48828125 C-22.93398437 17.47410156 -23.79765625 17.45992187 -24.6875 17.4453125 C-27.36392125 17.69127645 -28.9326014 18.25166264 -31.1953125 19.67578125 C-34.45535275 23.93891081 -34.79402574 27.07063422 -36.1953125 32.67578125 C-44.4453125 32.67578125 -52.6953125 32.67578125 -61.1953125 32.67578125 C-60.0844862 20.45669195 -57.59522971 11.79311797 -48.48046875 3.36328125 C-35.60515199 -6.14464497 -13.96329512 -8.42269937 0 0 Z M-31.31640625 70.71484375 C-35.99696635 75.59975263 -37.91472768 80.5486397 -38.3671875 87.3046875 C-38.10219203 90.96042041 -36.60235984 93.0012842 -34.1953125 95.67578125 C-30.35074496 98.23882628 -28.773278 98.26648648 -24.1953125 97.67578125 C-18.83681465 94.97394169 -14.56002067 91.68008467 -11.1953125 86.67578125 C-10.64802917 83.39491743 -10.64802917 83.39491743 -10.8046875 79.84375 C-10.81757813 78.55146484 -10.83046875 77.25917969 -10.84375 75.92773438 C-10.87716616 74.57290579 -10.91102588 73.21808808 -10.9453125 71.86328125 C-10.96539216 70.48895808 -10.98364037 69.11460686 -11 67.74023438 C-11.04709518 64.38470269 -11.11286115 61.03059998 -11.1953125 57.67578125 C-18.07378875 57.67578125 -26.50492958 66.22183691 -31.31640625 70.71484375 Z " fill="#2D8CCA" transform="translate(2958.1953125,761.32421875)"/>
<path d="M0 0 C6.24201273 5.09910899 10.36097184 11.07207083 11.625 19.125 C11.7330931 21.39397527 11.79071154 23.66558722 11.81445312 25.93701172 C11.82689308 26.93607544 11.82689308 26.93607544 11.83958435 27.95532227 C11.856931 29.39844316 11.87211232 30.84159137 11.88536072 32.28475571 C11.90660699 34.59348031 11.93362737 36.90207696 11.96203613 39.21072388 C12.02159054 44.14043046 12.07352237 49.07020355 12.125 54 C12.19315472 60.43495524 12.26502093 66.86985244 12.34375 73.3046875 C12.35313599 74.08188896 12.36252197 74.85909042 12.37219238 75.65984344 C12.53272092 88.4954516 12.93289384 101.30591715 13.625 114.125 C9.47918113 114.15386751 5.33338784 114.17175327 1.1875 114.1875 C0.00349609 114.19587891 -1.18050781 114.20425781 -2.40039062 114.21289062 C-3.52509766 114.21611328 -4.64980469 114.21933594 -5.80859375 114.22265625 C-7.37178345 114.23051147 -7.37178345 114.23051147 -8.96655273 114.23852539 C-11.375 114.125 -11.375 114.125 -12.375 113.125 C-12.74260731 110.79682036 -13.07741581 108.4631615 -13.375 106.125 C-14.07625 106.59550781 -14.7775 107.06601562 -15.5 107.55078125 C-26.95163325 115.06591557 -35.64928083 117.65518445 -49.375 116.125 C-55.3799022 114.58906403 -58.87620653 111.22324191 -62.375 106.125 C-67.47651898 95.92196203 -67.37326449 85.93348343 -64.40625 75.109375 C-58.55063269 58.16357338 -43.74676266 48.97764067 -28.390625 41.48046875 C-23.81223726 39.42256649 -19.13301876 37.71725037 -14.375 36.125 C-14.04334738 29.33226311 -14.04401913 24.1463885 -17.375 18.125 C-19.94088452 15.55911548 -21.11966869 15.7695746 -24.6875 15.6875 C-28.80441106 15.75755215 -30.02320284 15.86653678 -33.4375 18.375 C-36.739839 23.06219083 -37.38255236 25.17031415 -38.375 31.125 C-46.955 31.125 -55.535 31.125 -64.375 31.125 C-62.16637166 17.87322993 -59.28136053 7.91182154 -48.1875 -0.0625 C-34.5588055 -8.5331894 -13.39635154 -9.46773114 0 0 Z M-33.23828125 68.9453125 C-37.74114068 73.53872303 -40.49021868 77.91817875 -40.625 84.5 C-40.57286516 88.50786583 -40.04102764 90.98289599 -37.375 94.125 C-33.72065595 96.32994177 -31.06947795 96.54522392 -26.8984375 96.01171875 C-21.74716992 94.20159841 -18.10665233 89.97511748 -14.375 86.125 C-14.045 85.795 -13.715 85.465 -13.375 85.125 C-13.28724395 82.97941173 -13.26804781 80.83095579 -13.27734375 78.68359375 C-13.28217773 76.72583008 -13.28217773 76.72583008 -13.28710938 74.72851562 C-13.29546599 73.3398431 -13.30393095 71.95117123 -13.3125 70.5625 C-13.31751334 69.16992344 -13.32207653 67.77734519 -13.32617188 66.38476562 C-13.33800566 62.9648013 -13.3544912 59.54492156 -13.375 56.125 C-20.54629355 56.125 -28.3399349 64.37762376 -33.23828125 68.9453125 Z " fill="#2D8CCA" transform="translate(1765.375,762.875)"/>
<path d="M0 0 C9.4150583 -0.46923924 18.59113141 1.79126233 25.8671875 7.94140625 C36.32551393 18.36149383 39.87044272 32.03627956 39.96484375 46.5625 C39.95917756 48.91799109 39.94626374 51.27346668 39.9296875 53.62890625 C39.9090625 57.77453125 39.8884375 61.92015625 39.8671875 66.19140625 C23.0371875 66.19140625 6.2071875 66.19140625 -11.1328125 66.19140625 C-9.75068807 88.0650555 -9.75068807 88.0650555 -4.1328125 98.19140625 C-4.1328125 98.85140625 -4.1328125 99.51140625 -4.1328125 100.19140625 C-0.41541737 101.43053796 3.00930943 101.85521118 6.8671875 101.19140625 C13.71773565 95.4517578 14.04733012 85.38998007 14.8671875 77.19140625 C23.1171875 77.19140625 31.3671875 77.19140625 39.8671875 77.19140625 C39.8671875 91.42865493 37.51934256 104.82216979 27.6015625 115.66015625 C18.736089 123.48733105 8.26406097 125.02589499 -3.17333984 124.38232422 C-12.8324628 123.44120359 -19.64853596 118.43014637 -25.78125 111.265625 C-39.50985938 92.76336211 -38.9128062 64.88760187 -36.3828125 43.06640625 C-34.24194784 29.65626791 -30.29944106 15.41317319 -19.27734375 6.625 C-13.19453837 2.55871662 -7.24683527 0.65035701 0 0 Z M-4.1328125 25.19140625 C-8.73075307 31.75989278 -10.1328125 38.22992094 -10.1328125 46.19140625 C-1.8828125 46.19140625 6.3671875 46.19140625 14.8671875 46.19140625 C14.8671875 37.97225127 14.56181727 31.75997 9.5546875 25.12890625 C4.55847175 21.52698326 0.65828158 21.15680071 -4.1328125 25.19140625 Z " fill="#2D8CCA" transform="translate(1452.1328125,755.80859375)"/>
<path d="M0 0 C8.25 0 16.5 0 25 0 C25.01981934 2.67923584 25.03963867 5.35847168 25.06005859 8.11889648 C25.12710019 16.99178694 25.20473755 25.8645622 25.28752708 34.73731899 C25.3373771 40.11448547 25.3837079 45.49163338 25.421875 50.86889648 C25.45887075 56.06260479 25.50526895 61.2561533 25.55806351 66.4497242 C25.57653173 68.42671963 25.59166733 70.40374922 25.60334396 72.38079643 C25.62033661 75.15954673 25.64940192 77.93793707 25.68115234 80.71655273 C25.68331253 81.52576172 25.68547272 82.3349707 25.68769836 83.16870117 C25.76731168 88.65749542 26.62168087 93.68971964 28 99 C35.32611481 99.47921719 38.89970156 98.49177772 44.63914204 93.60412121 C47.08261529 90.72385937 46.4384787 86.82827501 46.43237305 83.21411133 C46.4425647 82.31634476 46.45275635 81.41857819 46.46325684 80.49360657 C46.49347679 77.52301872 46.50266653 74.55275285 46.51171875 71.58203125 C46.52855876 69.52364523 46.54670807 67.46526954 46.56611633 65.40690613 C46.61369604 59.98673733 46.64345386 54.56661039 46.66955566 49.14630127 C46.69932098 43.61633027 46.74586511 38.08650362 46.79101562 32.55664062 C46.87713957 21.70448582 46.94289401 10.85234635 47 0 C55.58 0 64.16 0 73 0 C73 38.94 73 77.88 73 118 C65.08 118 57.16 118 49 118 C48.505 113.545 48.505 113.545 48 109 C47.27296875 109.68835938 47.27296875 109.68835938 46.53125 110.390625 C37.8038371 118.3795645 30.40380606 121.38765145 18.52734375 121.27734375 C12.4114353 120.79646944 8.81434142 118.96145019 4.6875 114.5 C-1.21925811 102.24894614 -0.39270138 89.45080425 -0.29296875 76.171875 C-0.2873645 73.96942434 -0.28309833 71.76696991 -0.28010559 69.56451416 C-0.2687221 63.80403076 -0.23931154 58.04377895 -0.20599365 52.28338623 C-0.1751519 46.39077892 -0.16157026 40.49813373 -0.14648438 34.60546875 C-0.11443499 23.07019505 -0.06172086 11.53515313 0 0 Z " fill="#2D8CCA" transform="translate(1151,759)"/>
<path d="M0 0 C8.58 0 17.16 0 26 0 C26.01458252 2.82135498 26.02916504 5.64270996 26.04418945 8.54956055 C26.09451815 17.86954205 26.16111025 27.18935617 26.23571491 36.50917339 C26.28044937 42.15999108 26.31969885 47.81073615 26.34643555 53.46166992 C26.37243763 58.91476549 26.41281842 64.36758209 26.46318626 69.82050514 C26.47987587 71.90127913 26.49137708 73.98210139 26.49761391 76.06293297 C26.50723208 78.976742 26.53526445 81.88983395 26.56762695 84.8034668 C26.56547432 86.09495636 26.56547432 86.09495636 26.5632782 87.41253662 C26.63583424 92.02928645 26.86416305 95.33231689 30 99 C35.92443016 100.02538214 39.26678966 98.27683793 44 95 C46.76951301 92.37251136 47.00558389 90.94488294 47.39872742 87.06427002 C47.42512735 85.44048349 47.43515904 83.81638155 47.43237305 82.19238281 C47.4425647 81.30422379 47.45275635 80.41606476 47.46325684 79.50099182 C47.49342645 76.56830571 47.50265888 73.63594602 47.51171875 70.703125 C47.52856248 68.66858837 47.54671231 66.63406216 47.56611633 64.59954834 C47.61365555 59.24679828 47.64343962 53.89409048 47.66955566 48.54119873 C47.69934134 43.07816214 47.74587852 37.61527125 47.79101562 32.15234375 C47.87709354 21.4349552 47.9428707 10.717582 48 0 C56.25 0 64.5 0 73 0 C73 38.94 73 77.88 73 118 C65.41 118 57.82 118 50 118 C49.505 113.545 49.505 113.545 49 109 C48.07380859 109.79664063 48.07380859 109.79664063 47.12890625 110.609375 C37.57260607 118.58023116 30.97126907 121.44649145 18.55078125 121.43359375 C13.29635748 120.79196444 10.07460231 119.04961156 6.3125 115.375 C-0.38425614 106.65414393 -0.15805851 94.8359785 -0.11352539 84.34936523 C-0.11367142 83.43121536 -0.11381744 82.51306549 -0.1139679 81.5670929 C-0.11327711 78.56423492 -0.10552419 75.56144075 -0.09765625 72.55859375 C-0.0957891 70.463954 -0.0943666 68.36931381 -0.09336853 66.27467346 C-0.08956673 60.78549983 -0.0797566 55.29635304 -0.06866455 49.80718994 C-0.05839998 44.19633344 -0.05386013 38.58547257 -0.04882812 32.97460938 C-0.03813206 21.98305928 -0.02055438 10.99153608 0 0 Z " fill="#2D8CCA" transform="translate(2656,759)"/>
<path d="M0 0 C7.22989972 8.03322191 7.40576997 19.85523457 7.36352539 30.10717773 C7.36367142 31.04454269 7.36381744 31.98190765 7.3639679 32.94767761 C7.36327477 36.02634039 7.35551059 39.10494163 7.34765625 42.18359375 C7.34578994 44.32593248 7.34436704 46.46827165 7.34336853 48.61061096 C7.33956016 54.23462107 7.32974426 59.85860513 7.31866455 65.48260498 C7.30841426 71.22733203 7.30386317 76.97206331 7.29882812 82.71679688 C7.28812044 93.97787783 7.27053729 105.23893267 7.25 116.5 C-1.33 116.5 -9.91 116.5 -18.75 116.5 C-18.779729 112.2601123 -18.779729 112.2601123 -18.81005859 107.93457031 C-18.87692131 98.60263764 -18.95456147 89.27081715 -19.03752708 79.93901443 C-19.08750433 74.28033151 -19.13383435 68.62166738 -19.171875 62.96289062 C-19.2087096 57.50336944 -19.25506478 52.04400499 -19.30806351 46.58461761 C-19.32661713 44.50021866 -19.34172149 42.4157861 -19.35334396 40.33133698 C-19.3701897 37.41506346 -19.39922098 34.49914968 -19.43115234 31.58300781 C-19.43331253 30.71841949 -19.43547272 29.85383118 -19.43769836 28.96304321 C-19.44886185 28.16661407 -19.46002533 27.37018494 -19.4715271 26.54962158 C-19.47705786 25.86012043 -19.48258862 25.17061928 -19.48828697 24.46022415 C-19.8038159 22.09692023 -20.47541911 20.51125798 -21.75 18.5 C-24.73249244 17.3638124 -26.73696064 17.15128068 -29.78125 18.19921875 C-33.77390777 20.08381281 -37.01320386 21.9684671 -39.75 25.5 C-40.15274853 28.55426713 -40.31427034 31.25242003 -40.29589844 34.30761719 C-40.30623611 35.19577621 -40.31657379 36.08393524 -40.32722473 36.99900818 C-40.35669946 39.9318145 -40.35815289 42.86393208 -40.359375 45.796875 C-40.37435348 47.83141398 -40.39107993 49.86594079 -40.40948486 51.90045166 C-40.45320774 57.25324048 -40.47316848 62.60586527 -40.48822021 67.95880127 C-40.50777344 73.4218518 -40.54974547 78.88472472 -40.58984375 84.34765625 C-40.66519962 95.06507951 -40.7133866 105.78237428 -40.75 116.5 C-49 116.5 -57.25 116.5 -65.75 116.5 C-65.75 77.56 -65.75 38.62 -65.75 -1.5 C-58.16 -1.5 -50.57 -1.5 -42.75 -1.5 C-42.42 1.8 -42.09 5.1 -41.75 8.5 C-40.93208984 7.70335937 -40.93208984 7.70335937 -40.09765625 6.890625 C-28.06173446 -4.38405045 -14.85632159 -8.10344814 0 0 Z " fill="#2D8CCA" transform="translate(2119.75,760.5)"/>
<path d="M0 0 C8.72013135 9.15182102 8.36902931 23.20945187 8.31665039 35.08251953 C8.31679642 35.97155472 8.31694244 36.8605899 8.3170929 37.77656555 C8.31640357 40.67659052 8.30865769 43.57654894 8.30078125 46.4765625 C8.29891358 48.50251226 8.29749133 50.52846247 8.29649353 52.55441284 C8.29269582 57.85780102 8.28288929 63.16116132 8.27178955 68.46453857 C8.26151608 73.88781355 8.25698325 79.31109308 8.25195312 84.734375 C8.24126429 95.35418081 8.22369005 105.97395872 8.203125 116.59375 C-0.376875 116.59375 -8.956875 116.59375 -17.796875 116.59375 C-17.81145752 113.80268799 -17.82604004 111.01162598 -17.84106445 108.13598633 C-17.8913945 98.9157885 -17.95798683 89.69575983 -18.03258991 80.47572803 C-18.07732323 74.88544467 -18.11657296 69.29523468 -18.14331055 63.70483398 C-18.16931377 58.31009151 -18.20969536 52.91563097 -18.26006126 47.52106285 C-18.2767501 45.46261793 -18.2882518 43.40412423 -18.29448891 41.34562111 C-18.30410793 38.46294197 -18.33214125 35.58098741 -18.36450195 32.69848633 C-18.36306686 31.84684402 -18.36163177 30.99520172 -18.3601532 30.11775208 C-18.43385663 25.47745488 -18.75858319 22.3472754 -21.796875 18.59375 C-25.19281619 17.0844428 -26.73953062 17.57531788 -30.296875 18.71875 C-34.04947321 20.72907047 -36.15866228 22.25360855 -38.796875 25.59375 C-39.51993095 28.56966826 -39.48789739 31.46355612 -39.45629883 34.51489258 C-39.47202438 35.84735016 -39.47202438 35.84735016 -39.48806763 37.20672607 C-39.51680138 40.13426717 -39.51052806 43.06062449 -39.50390625 45.98828125 C-39.51702229 48.02139263 -39.53232622 50.05449098 -39.54972839 52.08757019 C-39.5896021 57.43218857 -39.5997704 62.77646624 -39.60375977 68.12121582 C-39.61308668 73.57766063 -39.65049749 79.03390489 -39.68554688 84.49023438 C-39.75014726 95.19144405 -39.78077128 105.89235733 -39.796875 116.59375 C-48.046875 116.59375 -56.296875 116.59375 -64.796875 116.59375 C-64.796875 77.65375 -64.796875 38.71375 -64.796875 -1.40625 C-57.206875 -1.40625 -49.616875 -1.40625 -41.796875 -1.40625 C-41.466875 1.56375 -41.136875 4.53375 -40.796875 7.59375 C-40.24 7.13484375 -39.683125 6.6759375 -39.109375 6.203125 C-28.18413015 -2.58136241 -12.89047053 -10.08819433 0 0 Z " fill="#2D8CCA" transform="translate(3074.796875,760.40625)"/>
<path d="M0 0 C0.56203125 0.45890625 1.1240625 0.9178125 1.703125 1.390625 C12.11864417 10.71930739 15.31405878 24.64658898 17 38 C17.20788519 42.72434841 17.22795192 47.44730236 17.24023438 52.17553711 C17.24984079 54.40062302 17.28087503 56.62474334 17.3125 58.84960938 C17.4394903 75.97702522 15.32436105 95.0071005 3 108 C-5.03605179 115.47420919 -13.16290571 117.51138277 -23.9765625 117.41967773 C-33.20520486 117.08249402 -40.56980882 114.41000676 -47.2265625 107.95703125 C-62.40896872 91.20287813 -62.83339894 67.37331254 -62.15234375 45.9609375 C-61.34223574 30.21576125 -58.16335451 12.45814215 -46.0859375 1.21875 C-33.10647241 -9.00445802 -13.32334361 -10.9009175 0 0 Z M-30 19 C-39.75509856 35.35413582 -38.41363328 64.09750997 -34 82 C-32.39290312 86.90662322 -30.4885245 92.13233157 -26 95 C-21.90290302 95.6520208 -21.90290302 95.6520208 -18 95 C-11.43756674 89.31255784 -10.03393129 81.3083576 -9 73 C-8.87694095 70.32647857 -8.78988984 67.67777892 -8.76171875 65.00390625 C-8.753647 64.25270004 -8.74557526 63.50149384 -8.73725891 62.7275238 C-8.72349979 61.14169563 -8.71274154 59.55583885 -8.70483398 57.9699707 C-8.69339336 56.38101236 -8.67306926 54.79208999 -8.64331055 53.20336914 C-8.10190485 34.54021098 -8.10190485 34.54021098 -15.4597168 18.11938477 C-20.85195285 13.620586 -24.98891285 14.31572288 -30 19 Z " fill="#2D8CCA" transform="translate(2004,763)"/>
<path d="M0 0 C12.21908731 9.97211229 16.27447158 25.17866914 18.1953125 40.22265625 C18.433685 45.34477563 18.4410002 50.47055576 18.4453125 55.59765625 C18.44598724 56.31441528 18.44666199 57.03117432 18.44735718 57.76965332 C18.41897296 76.72394651 16.9447334 95.76052239 3.1953125 110.22265625 C-4.72679325 117.69528082 -14.58592538 118.82119485 -25.1171875 118.56640625 C-34.44765208 117.69661718 -41.5410997 114.1745504 -47.8046875 107.22265625 C-62.51877567 89.16290534 -62.33574027 62.50638581 -60.58642578 40.47363281 C-59.08289748 26.98151416 -55.75086462 13.04995476 -45.8046875 3.22265625 C-32.43679421 -7.43490816 -14.81705015 -9.38963484 0 0 Z M-27.8046875 19.22265625 C-35.2942939 30.06967242 -35.13877079 43.52607973 -35.0546875 56.22265625 C-35.06242188 57.39054688 -35.07015625 58.5584375 -35.078125 59.76171875 C-35.05223109 71.43987075 -34.7323318 84.46474406 -27.6171875 94.22265625 C-24.40968644 96.50354589 -22.60301056 97.04223647 -18.73046875 96.7578125 C-16.01130443 96.00218266 -14.43662835 94.47915134 -12.83203125 92.19921875 C-8.7060173 84.26095617 -7.65584139 75.29413326 -7.6015625 66.47265625 C-7.59301239 65.36990356 -7.59301239 65.36990356 -7.58428955 64.24487305 C-7.57488139 62.69174619 -7.5683223 61.13859975 -7.56445312 59.58544922 C-7.55482991 57.25711185 -7.52380222 54.92969017 -7.4921875 52.6015625 C-7.22739347 34.73711548 -7.22739347 34.73711548 -14.8046875 19.22265625 C-19.23522854 15.06902403 -23.21445914 15.41612542 -27.8046875 19.22265625 Z " fill="#2D8CCA" transform="translate(996.8046875,761.77734375)"/>
<path d="M0 0 C13.07577486 11.74100767 15.91331244 30.05354921 16.81640625 46.73046875 C17.67309755 67.36147302 17.02497371 90.77193846 3 107.2890625 C-4.4547163 114.5570775 -12.62886392 117.20069224 -22.93359375 117.35546875 C-33.54096157 117.19614663 -41.3718011 114.40682529 -49.00390625 106.96484375 C-62.92671465 91.7455795 -63.68208088 67.78264858 -63.03857422 48.20166016 C-62.32651239 32.28790632 -59.8372205 13.39698848 -47.796875 1.796875 C-33.95603873 -9.50608298 -14.7354174 -10.67592853 0 0 Z M-29.93359375 17.85546875 C-33.44454393 23.04292802 -34.95039419 28.73893256 -35.93359375 34.85546875 C-36.04574219 35.54511719 -36.15789063 36.23476563 -36.2734375 36.9453125 C-38.40534587 53.5625161 -39.87848075 78.73262695 -29.74609375 92.91796875 C-26.52677689 95.13572036 -24.70150374 95.61031525 -20.859375 95.328125 C-17.34386476 94.46529186 -16.00109418 92.74996935 -13.93359375 89.85546875 C-11.18765189 83.5524312 -10.28832886 77.21829352 -9.74609375 70.41796875 C-9.66423828 69.54076172 -9.58238281 68.66355469 -9.49804688 67.75976562 C-8.67354934 58.35772234 -8.81983302 49.17956375 -9.74609375 39.79296875 C-9.81634766 38.95958984 -9.88660156 38.12621094 -9.95898438 37.26757812 C-10.64469711 30.21845124 -11.85546137 23.55142427 -16.24609375 17.85546875 C-21.16782364 14.19278604 -25.20318627 13.7474833 -29.93359375 17.85546875 Z " fill="#2D8CCA" transform="translate(2398.93359375,763.14453125)"/>
<path d="M0 0 C6.25134313 5.84364684 8.73048697 13.67785508 9.08998299 22.11079025 C9.12274123 24.63348666 9.12366228 27.15435388 9.11352539 29.67724609 C9.11367142 30.63397217 9.11381744 31.59069824 9.1139679 32.57641602 C9.11327357 35.72544658 9.10550369 38.87441732 9.09765625 42.0234375 C9.09579036 44.21204598 9.09436727 46.40065487 9.09336853 48.58926392 C9.08955679 54.3398759 9.07973798 60.09046248 9.06866455 65.84106445 C9.05842154 71.71304989 9.05386472 77.58503945 9.04882812 83.45703125 C9.0381145 94.9713671 9.02052858 106.48567746 9 118 C0.75 118 -7.5 118 -16 118 C-16.029729 114.01873047 -16.029729 114.01873047 -16.06005859 109.95703125 C-16.12706847 101.17194346 -16.20470645 92.38697251 -16.28752708 83.60202026 C-16.33739958 78.27751249 -16.38373034 72.9530237 -16.421875 67.62841797 C-16.45884216 62.4865836 -16.50523295 57.34491153 -16.55806351 52.20321655 C-16.57654681 50.24493263 -16.59167697 48.28661399 -16.60334396 46.32827759 C-16.6203105 43.57805891 -16.64937008 40.82820702 -16.68115234 38.078125 C-16.68331253 37.27467148 -16.68547272 36.47121796 -16.68769836 35.64341736 C-16.76374476 30.46722007 -17.37998465 25.93622179 -19 21 C-21.85919024 18.67088101 -21.85919024 18.67088101 -25.3125 19.125 C-30.06031788 20.25160085 -33.15560214 22.21488801 -36.64485168 25.59197998 C-38.65870853 29.17048689 -38.43931434 32.71485753 -38.43237305 36.71582031 C-38.4425647 37.59422577 -38.45275635 38.47263123 -38.46325684 39.37765503 C-38.4934243 42.27787625 -38.50265853 45.17776739 -38.51171875 48.078125 C-38.52856265 50.09024151 -38.54671249 52.10234747 -38.56611633 54.11444092 C-38.6136538 59.40800686 -38.643439 64.70153007 -38.66955566 69.99523926 C-38.69934222 75.3979537 -38.74587911 80.80052085 -38.79101562 86.203125 C-38.87709155 96.80202331 -38.94286968 107.4009061 -39 118 C-47.25 118 -55.5 118 -64 118 C-64 79.06 -64 40.12 -64 0 C-56.41 0 -48.82 0 -41 0 C-40.67 3.3 -40.34 6.6 -40 10 C-39.18208984 9.20335937 -39.18208984 9.20335937 -38.34765625 8.390625 C-27.69361975 -1.58956645 -13.95607724 -7.07143493 0 0 Z " fill="#2D8CCA" transform="translate(2512,759)"/>
<path d="M0 0 C6.25134313 5.84364684 8.73048697 13.67785508 9.08998299 22.11079025 C9.12274123 24.63348666 9.12366228 27.15435388 9.11352539 29.67724609 C9.11367142 30.63397217 9.11381744 31.59069824 9.1139679 32.57641602 C9.11327357 35.72544658 9.10550369 38.87441732 9.09765625 42.0234375 C9.09579036 44.21204598 9.09436727 46.40065487 9.09336853 48.58926392 C9.08955679 54.3398759 9.07973798 60.09046248 9.06866455 65.84106445 C9.05842154 71.71304989 9.05386472 77.58503945 9.04882812 83.45703125 C9.0381145 94.9713671 9.02052858 106.48567746 9 118 C0.75 118 -7.5 118 -16 118 C-16.01458252 115.35105713 -16.02916504 112.70211426 -16.04418945 109.97290039 C-16.0946307 101.19976159 -16.16124257 92.4267985 -16.23571491 83.65383244 C-16.28035421 78.33718966 -16.31962454 73.02062237 -16.34643555 67.70385742 C-16.37253273 62.56844534 -16.41298052 57.43332477 -16.46318626 52.2980938 C-16.47981164 50.34343543 -16.49135278 48.38872669 -16.49761391 46.43400764 C-16.50730221 43.68624774 -16.53541748 40.93922638 -16.56762695 38.19165039 C-16.56619186 37.39179214 -16.56475677 36.5919339 -16.5632782 35.76783752 C-16.65714773 30.06871264 -17.93500705 25.30094084 -20 20 C-24.99193318 18.50242004 -27.65500311 19.40290322 -32.0703125 21.69921875 C-34.53304776 23.35932167 -36.15749425 24.62245 -38 27 C-38.40274853 30.05426713 -38.56427034 32.75242003 -38.54589844 35.80761719 C-38.55623611 36.69577621 -38.56657379 37.58393524 -38.57722473 38.49900818 C-38.60669946 41.4318145 -38.60815289 44.36393208 -38.609375 47.296875 C-38.62435348 49.33141398 -38.64107993 51.36594079 -38.65948486 53.40045166 C-38.70320774 58.75324048 -38.72316848 64.10586527 -38.73822021 69.45880127 C-38.75777344 74.9218518 -38.79974547 80.38472472 -38.83984375 85.84765625 C-38.91519962 96.56507951 -38.9633866 107.28237428 -39 118 C-47.25 118 -55.5 118 -64 118 C-64 79.06 -64 40.12 -64 0 C-56.41 0 -48.82 0 -41 0 C-40.67 3.3 -40.34 6.6 -40 10 C-39.18208984 9.20335937 -39.18208984 9.20335937 -38.34765625 8.390625 C-27.69361975 -1.58956645 -13.95607724 -7.07143493 0 0 Z " fill="#2D8CCA" transform="translate(1589,759)"/>
<path d="M0 0 C8.58 0 17.16 0 26 0 C27.68186962 8.31868127 29.36038897 16.63801763 31.03315639 24.95853329 C31.81016796 28.82279038 32.58859609 32.68675039 33.37036133 36.55004883 C34.12591799 40.28410706 34.87762318 44.01892241 35.62675667 47.75427437 C35.91204196 49.17335721 36.1986724 50.59217038 36.48672295 52.0106945 C37.97010776 59.32019295 39.33884118 66.56285671 40 74 C40.13462646 73.28610107 40.26925293 72.57220215 40.40795898 71.83666992 C44.95459883 47.82384356 49.94609263 23.9105973 55 0 C63.25 0 71.5 0 80 0 C77.54115452 11.0841826 75.07818291 22.16744102 72.6118927 33.24996948 C72.00318533 35.98568417 71.394833 38.72147765 70.78649902 41.45727539 C68.48071765 51.82279602 66.16451354 62.18590286 63.83161545 72.54535675 C62.73420321 77.41981971 61.64133335 82.29521509 60.55810547 87.17285156 C59.48263736 92.01478641 58.39583114 96.85405286 57.30139542 101.69173431 C56.89486145 103.49740397 56.49216071 105.30394205 56.0937767 107.11142731 C48.15970263 143.06217104 48.15970263 143.06217104 34.25390625 152.74609375 C26.43931897 157.09355045 17.7768147 157.70431229 9 157 C8.01 156.67 7.02 156.34 6 156 C6 148.74 6 141.48 6 134 C7.85625 133.7525 9.7125 133.505 11.625 133.25 C16.81488052 132.36869953 20.16198117 131.63601784 24 128 C28.09840712 119.80318576 25.54475568 110.69987435 23.6484375 102.2265625 C23.38638519 101.03068512 23.12433289 99.83480774 22.8543396 98.60269165 C18.91723906 80.76542075 14.58351157 63.01524267 10.31677246 45.25476074 C8.47754688 37.59829864 6.64174553 29.9410216 4.810009 22.28276443 C4.17378717 19.626538 3.53471136 16.97100942 2.89541626 14.31552124 C2.51039983 12.70826 2.12549553 11.1009719 1.74072266 9.49365234 C1.56313416 8.75937012 1.38554565 8.02508789 1.20257568 7.26855469 C0 2.22750978 0 2.22750978 0 0 Z " fill="#2D8CCA" transform="translate(3213,759)"/>
<path d="M0 0 C8.67417631 7.76768581 13.21069827 17.61353445 15 29 C15 31.97 15 34.94 15 38 C6.75 38 -1.5 38 -10 38 C-10.2475 35.999375 -10.495 33.99875 -10.75 31.9375 C-11.715269 25.69723981 -12.74962825 20.68996283 -17.8125 16.5 C-21.36402351 15.6882232 -23.50509634 15.89634621 -27 17 C-38.13559672 28.74776303 -35.35619319 50.24380764 -35.09765625 64.96533203 C-34.78949862 74.54133044 -33.78929731 84.38622621 -28.3125 92.5 C-25.39264838 94.3939578 -23.33567767 94.64427618 -19.89453125 94.43359375 C-17.76792427 94.09330665 -17.76792427 94.09330665 -15.6875 92.125 C-11.58711486 84.53169419 -10.86762978 77.67629784 -10 69 C-1.75 69 6.5 69 15 69 C15 75.71849558 14.97803276 80.81186272 13.3125 87.0625 C13.04457642 88.09383057 13.04457642 88.09383057 12.77124023 89.14599609 C11.2607225 94.64669538 9.25583003 99.33164064 6 104 C5.2575 105.0725 4.515 106.145 3.75 107.25 C-3.35184745 114.35184745 -12.2992736 117.26914121 -22.25 117.375 C-32.16878994 117.20854449 -39.99022342 114.93886456 -47.22265625 107.97265625 C-63.07931446 90.37350813 -62.96467357 65.3154237 -62 43 C-60.85362 28.29453488 -57.87350988 12.74354761 -47 2 C-33.20144802 -9.00090742 -14.61139816 -10.61467469 0 0 Z " fill="#2D8CCA" transform="translate(1104,763)"/>
<path d="M0 0 C10.26809997 8.00283476 14.20046098 18.67713463 16.12890625 31.12890625 C16.42578125 33.890625 16.42578125 33.890625 16.42578125 38.890625 C8.17578125 38.890625 -0.07421875 38.890625 -8.57421875 38.890625 C-8.98671875 36.704375 -9.39921875 34.518125 -9.82421875 32.265625 C-11.17922551 25.96770627 -12.19697107 21.47984822 -17.44921875 17.453125 C-20.55337351 16.63143698 -22.51322605 16.93406478 -25.57421875 17.890625 C-31.42576169 23.24060712 -32.64296983 31.36059324 -33.57421875 38.890625 C-33.68594212 41.51527788 -33.7610735 44.113778 -33.77734375 46.73828125 C-33.78589386 47.83891151 -33.78589386 47.83891151 -33.7946167 48.96177673 C-33.80401096 50.50892726 -33.81057833 52.05609729 -33.81445312 53.60327148 C-33.82409246 55.92273755 -33.85514075 58.24129049 -33.88671875 60.56054688 C-34.13890584 78.38908782 -34.13890584 78.38908782 -26.57421875 93.890625 C-23.43550687 95.45998094 -21.03566053 95.24263603 -17.57421875 94.890625 C-12.30808925 90.9117716 -11.03892943 86.56988287 -9.94140625 80.2421875 C-9.77898438 79.01242187 -9.6165625 77.78265625 -9.44921875 76.515625 C-9.16046875 74.329375 -8.87171875 72.143125 -8.57421875 69.890625 C-0.32421875 69.890625 7.92578125 69.890625 16.42578125 69.890625 C15.78712631 85.53767101 13.38266543 99.41593052 1.73828125 110.703125 C-7.28883289 118.02701005 -17.28266932 118.8757111 -28.57421875 117.890625 C-37.35923869 116.54830272 -44.02362231 112.34641303 -49.55078125 105.41015625 C-59.0892589 91.34597538 -60.94146108 75.36255303 -60.88989258 58.76513672 C-60.88674276 56.65669436 -60.9102555 54.54967561 -60.93554688 52.44140625 C-61.01585206 35.27033346 -58.50455815 17.09392866 -46.57421875 3.890625 C-46.08566406 3.33632813 -45.59710937 2.78203125 -45.09375 2.2109375 C-33.25963233 -9.53552004 -13.20718196 -8.46245562 0 0 Z " fill="#2D8CCA" transform="translate(3175.57421875,762.109375)"/>
<path d="M0 0 C6.77641697 5.239382 11.16198327 12.58058768 13.359375 20.82421875 C13.45703125 23.62109375 13.45703125 23.62109375 13.359375 25.82421875 C10.9857353 26.33156159 8.61080075 26.83024261 6.234375 27.32421875 C5.56921875 27.46730469 4.9040625 27.61039063 4.21875 27.7578125 C0.19881078 28.58544705 -3.53967399 28.97752533 -7.640625 28.82421875 C-7.89457031 28.13714844 -8.14851563 27.45007813 -8.41015625 26.7421875 C-8.75433594 25.84113281 -9.09851562 24.94007813 -9.453125 24.01171875 C-9.78957031 23.11839844 -10.12601563 22.22507812 -10.47265625 21.3046875 C-11.63138424 18.84384378 -12.49705806 17.47110554 -14.640625 15.82421875 C-19.27617251 14.7603226 -21.54401846 14.41806818 -26.015625 16.07421875 C-28.84895833 17.72005208 -28.84895833 17.72005208 -30.640625 20.82421875 C-31.21099964 25.10202851 -30.61095323 27.74549494 -28 31.21484375 C-22.85802762 37.30246622 -17.08857383 42.10255292 -10.703125 46.82421875 C0.56953708 55.17049879 10.47321713 62.66875682 14.359375 76.82421875 C15.4403926 88.02406384 14.36568499 98.05763734 7.359375 107.13671875 C0.75446094 114.09981687 -8.65729496 117.85739555 -18.12304688 118.11669922 C-28.60594788 118.21759099 -37.45967336 116.47049059 -45.796875 109.63671875 C-52.6655285 102.8844831 -56.28256637 95.08069736 -58.640625 85.82421875 C-58.640625 85.16421875 -58.640625 84.50421875 -58.640625 83.82421875 C-55.74830225 82.95622158 -52.85277802 82.10456315 -49.953125 81.26171875 C-48.72819336 80.89143555 -48.72819336 80.89143555 -47.47851562 80.51367188 C-39.96418167 78.35368114 -39.96418167 78.35368114 -35.640625 79.82421875 C-35.38539063 80.71173828 -35.38539063 80.71173828 -35.125 81.6171875 C-32.74122176 89.58186891 -32.74122176 89.58186891 -26.62890625 94.89453125 C-22.75623187 96.459381 -19.77063054 97.32078133 -15.765625 95.82421875 C-12.39961217 93.66997054 -11.00178376 92.56740533 -9.640625 88.82421875 C-9.31357017 84.65426968 -9.89313618 82.86278041 -12.3359375 79.46875 C-17.8086401 73.14277656 -24.07074944 67.96231453 -30.640625 62.82421875 C-51.18463831 46.70851936 -51.18463831 46.70851936 -54.640625 33.82421875 C-55.77591999 23.68693869 -55.25734616 15.05064414 -49.02734375 6.6484375 C-36.69756042 -8.30586734 -16.0530269 -10.29487595 0 0 Z " fill="#2D8CCA" transform="translate(2610.640625,762.17578125)"/>
<path d="M0 0 C8.25 0 16.5 0 25 0 C25 10.56 25 21.12 25 32 C29.95 32 34.9 32 40 32 C40 38.6 40 45.2 40 52 C35.05 52 30.1 52 25 52 C25.06294424 61.30148917 25.13837612 70.60264789 25.23571491 79.90384197 C25.28041711 84.22290362 25.31967348 88.54187097 25.34643555 92.86108398 C25.37247016 97.03042164 25.41287344 101.19939641 25.46318626 105.36850929 C25.47985396 106.95804132 25.49136886 108.54763612 25.49761391 110.13724327 C25.50725634 112.36621394 25.53531548 114.59425648 25.56762695 116.82299805 C25.58428154 118.72495186 25.58428154 118.72495186 25.60127258 120.66532898 C26.02997416 124.25068244 26.79369578 126.16524492 29 129 C31.70259319 130.02767111 31.70259319 130.02767111 34.6875 130.3125 C36.440625 130.539375 38.19375 130.76625 40 131 C40 137.93 40 144.86 40 152 C31.06001265 154.23499684 18.92376759 154.8653572 10.69140625 150.2578125 C4.54545081 145.68737912 1.92546179 139.63304787 0.47096252 132.35153198 C-0.05186914 128.63088127 -0.13281408 124.99760052 -0.11352539 121.25048828 C-0.11367142 120.49858719 -0.11381744 119.7466861 -0.1139679 118.97200012 C-0.11327528 116.50474082 -0.10551358 114.0375585 -0.09765625 111.5703125 C-0.09578975 109.85252931 -0.09436694 108.13474558 -0.09336853 106.41696167 C-0.08956159 101.90920527 -0.07974696 97.4014814 -0.06866455 92.89373779 C-0.05841115 88.288538 -0.05386251 83.68333293 -0.04882812 79.078125 C-0.03812298 70.05206909 -0.02106856 61.02603726 0 52 C-4.29 52 -8.58 52 -13 52 C-13 45.4 -13 38.8 -13 32 C-8.71 32 -4.42 32 0 32 C0 21.44 0 10.88 0 0 Z " fill="#2D8CCA" transform="translate(2833,727)"/>
<path d="M0 0 C8.25 0 16.5 0 25 0 C25 10.56 25 21.12 25 32 C29.95 32 34.9 32 40 32 C40 38.6 40 45.2 40 52 C35.05 52 30.1 52 25 52 C25.06294424 61.30148917 25.13837612 70.60264789 25.23571491 79.90384197 C25.28041711 84.22290362 25.31967348 88.54187097 25.34643555 92.86108398 C25.37247016 97.03042164 25.41287344 101.19939641 25.46318626 105.36850929 C25.47985396 106.95804132 25.49136886 108.54763612 25.49761391 110.13724327 C25.50725634 112.36621394 25.53531548 114.59425648 25.56762695 116.82299805 C25.58428154 118.72495186 25.58428154 118.72495186 25.60127258 120.66532898 C26.02997416 124.25068244 26.79369578 126.16524492 29 129 C31.70259319 130.02767111 31.70259319 130.02767111 34.6875 130.3125 C36.440625 130.539375 38.19375 130.76625 40 131 C40 137.93 40 144.86 40 152 C31.06001265 154.23499684 18.92376759 154.8653572 10.69140625 150.2578125 C4.54545081 145.68737912 1.92546179 139.63304787 0.47096252 132.35153198 C-0.05186914 128.63088127 -0.13281408 124.99760052 -0.11352539 121.25048828 C-0.11367142 120.49858719 -0.11381744 119.7466861 -0.1139679 118.97200012 C-0.11327528 116.50474082 -0.10551358 114.0375585 -0.09765625 111.5703125 C-0.09578975 109.85252931 -0.09436694 108.13474558 -0.09336853 106.41696167 C-0.08956159 101.90920527 -0.07974696 97.4014814 -0.06866455 92.89373779 C-0.05841115 88.288538 -0.05386251 83.68333293 -0.04882812 79.078125 C-0.03812298 70.05206909 -0.02106856 61.02603726 0 52 C-4.29 52 -8.58 52 -13 52 C-13 45.4 -13 38.8 -13 32 C-8.71 32 -4.42 32 0 32 C0 21.44 0 10.88 0 0 Z " fill="#2D8CCA" transform="translate(1816,727)"/>
<path d="M0 0 C8.25 0 16.5 0 25 0 C25 10.56 25 21.12 25 32 C30.28 32 35.56 32 41 32 C41 38.6 41 45.2 41 52 C35.72 52 30.44 52 25 52 C25.0857799 60.58043078 25.17967216 69.16065835 25.28752708 77.74083614 C25.33730028 81.72570813 25.38363064 85.71055601 25.421875 89.69555664 C25.45896925 93.54713925 25.50539175 97.3985104 25.55806351 101.24991035 C25.5764801 102.71333641 25.59163412 104.17680757 25.60334396 105.64030266 C25.66669135 113.28934469 25.74038678 120.63068121 28 128 C31.69620493 130.53454052 35.4408431 130.34869187 40 131 C40 137.93 40 144.86 40 152 C36.10125008 153.29958331 32.37667957 153.2237159 28.3125 153.25 C27.14557617 153.2809375 27.14557617 153.2809375 25.95507812 153.3125 C19.50476187 153.35553797 14.0284926 152.27270949 8.79296875 148.34375 C-1.71030021 136.28160171 -0.15316218 119.12632482 -0.09765625 104.05078125 C-0.09578667 102.54192655 -0.09436532 101.03307123 -0.09336853 99.5242157 C-0.08958586 95.59028388 -0.07979289 91.65639013 -0.06866455 87.72247314 C-0.05835805 83.69324254 -0.05385129 79.66400567 -0.04882812 75.63476562 C-0.03816596 67.75649312 -0.02114188 59.87825132 0 52 C-3.96 52 -7.92 52 -12 52 C-12 45.4 -12 38.8 -12 32 C-8.04 32 -4.08 32 0 32 C0 21.44 0 10.88 0 0 Z " fill="#2D8CCA" transform="translate(1637,727)"/>
<path d="M0 0 C7.92 0 15.84 0 24 0 C27.96 15.18 31.92 30.36 36 46 C39.34565216 33.95565221 42.60518667 21.92092125 45.66796875 9.80664062 C45.95800781 8.67291016 46.24804688 7.53917969 46.546875 6.37109375 C46.80307617 5.35974365 47.05927734 4.34839355 47.32324219 3.30639648 C48 1 48 1 49 0 C56.59 0 64.18 0 72 0 C72 24.75 72 49.5 72 75 C67.05 75 62.1 75 57 75 C56.67 59.49 56.34 43.98 56 28 C52.42229286 42.71884309 52.42229286 42.71884309 48.84985352 57.43896484 C48.40139591 59.27966906 47.95275918 61.12032965 47.50390625 62.9609375 C47.27151245 63.92233643 47.03911865 64.88373535 46.79968262 65.87426758 C46.57647339 66.78764893 46.35326416 67.70103027 46.12329102 68.64208984 C45.93009781 69.43706879 45.7369046 70.23204773 45.53785706 71.05111694 C45 73 45 73 44 75 C38.72 75 33.44 75 28 75 C24.04 59.16 20.08 43.32 16 27 C15.67 42.84 15.34 58.68 15 75 C10.05 75 5.1 75 0 75 C0 50.25 0 25.5 0 0 Z " fill="#DB332C" transform="translate(621,179)"/>
<path d="M0 0 C8.25 0 16.5 0 25 0 C25 53.13 25 106.26 25 161 C16.75 161 8.5 161 0 161 C0 107.87 0 54.74 0 0 Z " fill="#2D8CCA" transform="translate(2768,716)"/>
<path d="M0 0 C8.25 0 16.5 0 25 0 C25 38.94 25 77.88 25 118 C16.75 118 8.5 118 0 118 C0 79.06 0 40.12 0 0 Z " fill="#2D8CCA" transform="translate(1884,759)"/>
<path d="M0 0 C19.47 0 38.94 0 59 0 C59 4.29 59 8.58 59 13 C51.74 13 44.48 13 37 13 C37 33.46 37 53.92 37 75 C31.72 75 26.44 75 21 75 C21 54.54 21 34.08 21 13 C14.07 13 7.14 13 0 13 C0 8.71 0 4.42 0 0 Z " fill="#DA322B" transform="translate(553,179)"/>
<path d="M0 0 C12.54 0 25.08 0 38 0 C38 11.22 38 22.44 38 34 C25.46 34 12.92 34 0 34 C0 22.78 0 11.56 0 0 Z " fill="#14446D" transform="translate(2792,238)"/>
<path d="M0 0 C8.25 0 16.5 0 25 0 C25 7.59 25 15.18 25 23 C16.75 23 8.5 23 0 23 C0 15.41 0 7.82 0 0 Z " fill="#2D8CCA" transform="translate(1884,716)"/>
</svg>
